<?xml version="1.0" encoding="UTF-8" standalone="no"?>
<!DOCTYPE svg PUBLIC "-//W3C//DTD SVG 1.1//EN"
 "http://www.w3.org/Graphics/SVG/1.1/DTD/svg11.dtd">
<!-- Generated by graphviz version 2.43.0 (0)
 -->
<!-- Title: dependencies Pages: 1 -->
<svg width="2190pt" height="879pt"
 viewBox="0.00 0.00 2190.44 879.00" xmlns="http://www.w3.org/2000/svg" xmlns:xlink="http://www.w3.org/1999/xlink">
<g id="graph0" class="graph" transform="scale(1 1) rotate(0) translate(4 875)">
<title>dependencies</title>
<polygon fill="white" stroke="transparent" points="-4,4 -4,-875 2186.44,-875 2186.44,4 -4,4"/>
<text text-anchor="middle" x="1091.22" y="-855.8" font-family="Times,serif" font-size="14.00">Dependency Graph</text>
<text text-anchor="middle" x="1091.22" y="-840.8" font-family="Times,serif" font-size="14.00">Generated: 2025&#45;10&#45;29T13:11:57.942Z</text>
<text text-anchor="middle" x="1091.22" y="-825.8" font-family="Times,serif" font-size="14.00">Directory: /home/corno/workspace/pareto&#45;canon</text>
<!-- astn -->
<g id="node1" class="node">
<title>astn</title>
<polygon fill="lightcoral" stroke="black" points="974,-610 850,-610 850,-557 974,-557 974,-610"/>
<text text-anchor="start" x="896.5" y="-594.8" font-family="Times,serif" font-size="14.00">astn</text>
<text text-anchor="start" x="876" y="-579.8" font-family="Times,serif" font-size="14.00">v0.111.29</text>
<text text-anchor="start" x="858" y="-564.8" font-family="Times,serif" font-size="14.00" fill="red">Outdated Deps</text>
</g>
<!-- pareto_fountain_pen -->
<g id="node9" class="node">
<title>pareto_fountain_pen</title>
<polygon fill="lightcoral" stroke="black" points="1192,-402 1034,-402 1034,-349 1192,-349 1192,-402"/>
<text text-anchor="start" x="1042" y="-386.8" font-family="Times,serif" font-size="14.00">pareto&#45;fountain&#45;pen</text>
<text text-anchor="start" x="1086" y="-371.8" font-family="Times,serif" font-size="14.00">v0.1.41</text>
<text text-anchor="start" x="1059" y="-356.8" font-family="Times,serif" font-size="14.00" fill="red">Outdated Deps</text>
</g>
<!-- astn&#45;&gt;pareto_fountain_pen -->
<g id="edge5" class="edge">
<title>astn&#45;&gt;pareto_fountain_pen</title>
<path fill="none" stroke="red" stroke-width="2" d="M930.49,-556.85C950.6,-529.73 984.38,-486.35 1018,-453 1033.89,-437.24 1052.86,-421.45 1069.65,-408.34"/>
<polygon fill="red" stroke="red" stroke-width="2" points="1071.91,-411.02 1077.69,-402.14 1067.64,-405.47 1071.91,-411.02"/>
<text text-anchor="middle" x="1041" y="-475.8" font-family="Times,serif" font-size="14.00">0.1.41</text>
</g>
<!-- pareto_json -->
<g id="node10" class="node">
<title>pareto_json</title>
<polygon fill="lightcoral" stroke="black" points="674,-506 550,-506 550,-453 674,-453 674,-506"/>
<text text-anchor="start" x="571.5" y="-490.8" font-family="Times,serif" font-size="14.00">pareto&#45;json</text>
<text text-anchor="start" x="585" y="-475.8" font-family="Times,serif" font-size="14.00">v0.1.15</text>
<text text-anchor="start" x="558" y="-460.8" font-family="Times,serif" font-size="14.00" fill="red">Outdated Deps</text>
</g>
<!-- astn&#45;&gt;pareto_json -->
<g id="edge6" class="edge">
<title>astn&#45;&gt;pareto_json</title>
<path fill="none" stroke="red" stroke-width="2" d="M849.84,-561.37C801.47,-544.92 734.28,-522.08 683.65,-504.86"/>
<polygon fill="red" stroke="red" stroke-width="2" points="684.67,-501.51 674.08,-501.61 682.42,-508.14 684.67,-501.51"/>
<text text-anchor="middle" x="802" y="-527.8" font-family="Times,serif" font-size="14.00">0.1.15</text>
</g>
<!-- pareto_standard_operations -->
<g id="node12" class="node">
<title>pareto_standard_operations</title>
<polygon fill="lightcoral" stroke="black" points="919,-298 707,-298 707,-245 919,-245 919,-298"/>
<text text-anchor="start" x="715" y="-282.8" font-family="Times,serif" font-size="14.00">pareto&#45;standard&#45;operations</text>
<text text-anchor="start" x="786" y="-267.8" font-family="Times,serif" font-size="14.00">v0.1.17</text>
<text text-anchor="start" x="759" y="-252.8" font-family="Times,serif" font-size="14.00" fill="red">Outdated Deps</text>
</g>
<!-- astn&#45;&gt;pareto_standard_operations -->
<g id="edge7" class="edge">
<title>astn&#45;&gt;pareto_standard_operations</title>
<path fill="none" stroke="red" stroke-width="2" d="M899.94,-556.9C886.66,-527.88 865.42,-478.89 852,-435 836.2,-383.32 840.85,-368.24 827,-316 826.3,-313.36 825.53,-310.64 824.73,-307.92"/>
<polygon fill="red" stroke="red" stroke-width="2" points="828.01,-306.67 821.74,-298.13 821.32,-308.72 828.01,-306.67"/>
<text text-anchor="middle" x="875" y="-423.8" font-family="Times,serif" font-size="14.00">0.1.17</text>
</g>
<!-- exupery_core_alg -->
<g id="node15" class="node">
<title>exupery_core_alg</title>
<ellipse fill="yellow" stroke="black" cx="1276" cy="-72" rx="88.28" ry="18"/>
<text text-anchor="middle" x="1276" y="-68.3" font-family="Times,serif" font-size="14.00">exupery&#45;core&#45;alg</text>
</g>
<!-- astn&#45;&gt;exupery_core_alg -->
<g id="edge1" class="edge">
<title>astn&#45;&gt;exupery_core_alg</title>
<path fill="none" stroke="lightgrey" stroke-dasharray="5,2" d="M974.13,-580.5C1113.78,-575.15 1448,-557.21 1547,-506 1575.23,-491.4 1571.41,-474.29 1595,-453 1666.64,-388.36 1770,-420.99 1770,-324.5 1770,-324.5 1770,-324.5 1770,-166.5 1770,-105.97 1705.36,-124.09 1647,-108 1556.87,-83.15 1450.27,-75.2 1374.52,-72.99"/>
<polygon fill="lightgrey" stroke="lightgrey" points="1374.6,-69.5 1364.51,-72.73 1374.41,-76.49 1374.6,-69.5"/>
<text text-anchor="middle" x="1793" y="-319.8" font-family="Times,serif" font-size="14.00">0.1.12</text>
</g>
<!-- exupery_core_bin -->
<g id="node16" class="node">
<title>exupery_core_bin</title>
<ellipse fill="yellow" stroke="black" cx="1246" cy="-271.5" rx="89.08" ry="18"/>
<text text-anchor="middle" x="1246" y="-267.8" font-family="Times,serif" font-size="14.00">exupery&#45;core&#45;bin</text>
</g>
<!-- astn&#45;&gt;exupery_core_bin -->
<g id="edge2" class="edge">
<title>astn&#45;&gt;exupery_core_bin</title>
<path fill="none" stroke="lightgrey" stroke-dasharray="5,2" d="M959.26,-556.87C984.53,-544.51 1016.61,-530.9 1047,-524 1072.86,-518.13 1505.61,-525.1 1524,-506 1561.6,-466.96 1539.12,-361.79 1490,-316 1456.01,-284.31 1432.75,-306.14 1387,-298 1365.22,-294.13 1341.56,-289.87 1319.95,-285.96"/>
<polygon fill="lightgrey" stroke="lightgrey" points="1320.32,-282.47 1309.86,-284.13 1319.08,-289.36 1320.32,-282.47"/>
<text text-anchor="middle" x="1565" y="-423.8" font-family="Times,serif" font-size="14.00">0.1.18</text>
</g>
<!-- exupery_core_data -->
<g id="node17" class="node">
<title>exupery_core_data</title>
<ellipse fill="yellow" stroke="black" cx="525" cy="-271.5" rx="94.78" ry="18"/>
<text text-anchor="middle" x="525" y="-267.8" font-family="Times,serif" font-size="14.00">exupery&#45;core&#45;data</text>
</g>
<!-- astn&#45;&gt;exupery_core_data -->
<g id="edge3" class="edge">
<title>astn&#45;&gt;exupery_core_data</title>
<path fill="none" stroke="lightgrey" stroke-dasharray="5,2" d="M849.91,-578.56C755.05,-571.15 580.8,-551.57 541,-506 514.75,-475.95 519.36,-354.57 522.93,-299.68"/>
<polygon fill="lightgrey" stroke="lightgrey" points="526.43,-299.86 523.62,-289.64 519.44,-299.38 526.43,-299.86"/>
<text text-anchor="middle" x="545" y="-423.8" font-family="Times,serif" font-size="14.00">0.1.11</text>
</g>
<!-- exupery_core_dev -->
<g id="node18" class="node">
<title>exupery_core_dev</title>
<ellipse fill="yellow" stroke="black" cx="1064" cy="-167.5" rx="90.98" ry="18"/>
<text text-anchor="middle" x="1064" y="-163.8" font-family="Times,serif" font-size="14.00">exupery&#45;core&#45;dev</text>
</g>
<!-- astn&#45;&gt;exupery_core_dev -->
<g id="edge4" class="edge">
<title>astn&#45;&gt;exupery_core_dev</title>
<path fill="none" stroke="lightgrey" stroke-dasharray="5,2" d="M909.62,-556.97C905.7,-514.59 898.22,-431.45 897,-402 896.02,-378.46 883.23,-368.11 897,-349 911.79,-328.48 930.75,-346.16 951,-331 999.79,-294.49 1035.2,-230.59 1052.37,-194.76"/>
<polygon fill="lightgrey" stroke="lightgrey" points="1055.66,-195.99 1056.72,-185.45 1049.31,-193.03 1055.66,-195.99"/>
<text text-anchor="middle" x="915.5" y="-371.8" font-family="Times,serif" font-size="14.00">0.1.3</text>
</g>
<!-- astn_to_git -->
<g id="node2" class="node">
<title>astn_to_git</title>
<polygon fill="lightcoral" stroke="black" points="1515,-506 1391,-506 1391,-453 1515,-453 1515,-506"/>
<text text-anchor="start" x="1416" y="-490.8" font-family="Times,serif" font-size="14.00">astn&#45;to&#45;git</text>
<text text-anchor="start" x="1442" y="-475.8" font-family="Times,serif" font-size="14.00">n/a</text>
<text text-anchor="start" x="1399" y="-460.8" font-family="Times,serif" font-size="14.00" fill="red">Outdated Deps</text>
</g>
<!-- astn_to_git&#45;&gt;pareto_fountain_pen -->
<g id="edge10" class="edge">
<title>astn_to_git&#45;&gt;pareto_fountain_pen</title>
<path fill="none" stroke="yellow" stroke-width="2" d="M1390.72,-455.93C1387.78,-454.93 1384.86,-453.95 1382,-453 1304.68,-427.43 1284.6,-423.33 1206,-402 1204.73,-401.65 1203.45,-401.31 1202.16,-400.96"/>
<polygon fill="yellow" stroke="yellow" stroke-width="2" points="1202.71,-397.48 1192.14,-398.23 1200.87,-404.23 1202.71,-397.48"/>
<text text-anchor="middle" x="1347" y="-423.8" font-family="Times,serif" font-size="14.00">0.1.39</text>
</g>
<!-- astn_to_git&#45;&gt;exupery_core_alg -->
<g id="edge8" class="edge">
<title>astn_to_git&#45;&gt;exupery_core_alg</title>
<path fill="none" stroke="lightgrey" stroke-dasharray="5,2" d="M1515.31,-466.53C1547.67,-458.92 1582.42,-448.04 1592,-435 1615.18,-403.45 1691.4,-431.68 1564,-316 1528.3,-283.58 1498.05,-323.31 1457,-298 1420.19,-275.3 1369.9,-174.04 1342,-141 1329.04,-125.66 1313.44,-109.49 1300.66,-96.77"/>
<polygon fill="lightgrey" stroke="lightgrey" points="1303.08,-94.24 1293.5,-89.71 1298.16,-99.22 1303.08,-94.24"/>
<text text-anchor="middle" x="1480" y="-267.8" font-family="Times,serif" font-size="14.00">0.1.12</text>
</g>
<!-- astn_to_git&#45;&gt;exupery_core_dev -->
<g id="edge9" class="edge">
<title>astn_to_git&#45;&gt;exupery_core_dev</title>
<path fill="none" stroke="lightgrey" stroke-dasharray="5,2" d="M1477.25,-452.85C1506.75,-418.49 1548.69,-357.1 1515,-316 1489.14,-284.45 1461.31,-316.59 1425,-298 1394.21,-282.23 1399.56,-259.15 1368,-245 1290.2,-210.12 1258.63,-251.62 1177,-227 1163.48,-222.92 1161.51,-218.55 1149,-212 1134.54,-204.43 1118.64,-196.25 1104.53,-189.05"/>
<polygon fill="lightgrey" stroke="lightgrey" points="1106.06,-185.9 1095.56,-184.47 1102.88,-192.13 1106.06,-185.9"/>
<text text-anchor="middle" x="1541.5" y="-319.8" font-family="Times,serif" font-size="14.00">0.1.3</text>
</g>
<!-- astn_to_xml -->
<g id="node3" class="node">
<title>astn_to_xml</title>
<polygon fill="orange" stroke="black" points="1373,-506 1249,-506 1249,-453 1373,-453 1373,-506"/>
<text text-anchor="start" x="1270.5" y="-490.8" font-family="Times,serif" font-size="14.00">astn&#45;to&#45;xml</text>
<text text-anchor="start" x="1300" y="-475.8" font-family="Times,serif" font-size="14.00">n/a</text>
<text text-anchor="start" x="1257" y="-460.8" font-family="Times,serif" font-size="14.00" fill="red">Outdated Deps</text>
</g>
<!-- astn_to_xml&#45;&gt;pareto_fountain_pen -->
<g id="edge12" class="edge">
<title>astn_to_xml&#45;&gt;pareto_fountain_pen</title>
<path fill="none" stroke="yellow" stroke-width="2" d="M1261.29,-452.89C1234.11,-438.89 1200.26,-421.45 1171.77,-406.78"/>
<polygon fill="yellow" stroke="yellow" stroke-width="2" points="1173.22,-403.59 1162.73,-402.12 1170.02,-409.81 1173.22,-403.59"/>
<text text-anchor="middle" x="1246" y="-423.8" font-family="Times,serif" font-size="14.00">0.1.39</text>
</g>
<!-- astn_to_xml&#45;&gt;exupery_core_dev -->
<g id="edge11" class="edge">
<title>astn_to_xml&#45;&gt;exupery_core_dev</title>
<path fill="none" stroke="lightgrey" stroke-dasharray="5,2" d="M1366.73,-452.96C1386.78,-440.65 1407.12,-423.75 1418,-402 1428.53,-380.93 1430.6,-368.9 1418,-349 1408.01,-333.21 1392.91,-344.51 1380,-331 1351.38,-301.04 1377.39,-269.54 1344,-245 1309.47,-219.62 1192.4,-241.29 1152,-227 1129.76,-219.13 1107.66,-204.41 1091.17,-191.7"/>
<polygon fill="lightgrey" stroke="lightgrey" points="1093.1,-188.76 1083.09,-185.29 1088.75,-194.25 1093.1,-188.76"/>
<text text-anchor="middle" x="1398.5" y="-319.8" font-family="Times,serif" font-size="14.00">0.1.3</text>
</g>
<!-- exupery -->
<g id="node4" class="node">
<title>exupery</title>
<polygon fill="lightcoral" stroke="black" points="383,-506 259,-506 259,-453 383,-453 383,-506"/>
<text text-anchor="start" x="292" y="-490.8" font-family="Times,serif" font-size="14.00">exupery</text>
<text text-anchor="start" x="294" y="-475.8" font-family="Times,serif" font-size="14.00">v0.1.30</text>
<text text-anchor="start" x="267" y="-460.8" font-family="Times,serif" font-size="14.00" fill="red">Outdated Deps</text>
</g>
<!-- exupery&#45;&gt;pareto_fountain_pen -->
<g id="edge17" class="edge">
<title>exupery&#45;&gt;pareto_fountain_pen</title>
<path fill="none" stroke="red" stroke-width="2" d="M383.32,-456.37C387.92,-455.12 392.51,-453.97 397,-453 473.42,-436.46 494.25,-443.22 572,-435 633.35,-428.51 648.52,-425.12 710,-420 847.53,-408.54 883.82,-424.37 1020,-402 1021.28,-401.79 1022.56,-401.57 1023.85,-401.34"/>
<polygon fill="red" stroke="red" stroke-width="2" points="1024.7,-404.74 1033.85,-399.4 1023.36,-397.87 1024.7,-404.74"/>
<text text-anchor="middle" x="733" y="-423.8" font-family="Times,serif" font-size="14.00">0.1.41</text>
</g>
<!-- exupery&#45;&gt;pareto_standard_operations -->
<g id="edge18" class="edge">
<title>exupery&#45;&gt;pareto_standard_operations</title>
<path fill="none" stroke="red" stroke-width="2" d="M350.68,-452.83C385.93,-423.61 447.58,-376.4 508,-349 567.69,-321.93 638.47,-303.43 696.82,-291.41"/>
<polygon fill="red" stroke="red" stroke-width="2" points="697.71,-294.8 706.81,-289.39 696.32,-287.94 697.71,-294.8"/>
<text text-anchor="middle" x="531" y="-371.8" font-family="Times,serif" font-size="14.00">0.1.17</text>
</g>
<!-- exupery&#45;&gt;exupery_core_alg -->
<g id="edge13" class="edge">
<title>exupery&#45;&gt;exupery_core_alg</title>
<path fill="none" stroke="lightgrey" stroke-dasharray="5,2" d="M307.85,-452.99C286.74,-408.18 251.09,-313.59 287,-245 324.62,-173.13 361.37,-170.34 437,-141 569.68,-89.53 986.1,-77.02 1177.73,-73.98"/>
<polygon fill="lightgrey" stroke="lightgrey" points="1177.85,-77.47 1187.79,-73.82 1177.74,-70.48 1177.85,-77.47"/>
<text text-anchor="middle" x="310" y="-267.8" font-family="Times,serif" font-size="14.00">0.1.12</text>
</g>
<!-- exupery&#45;&gt;exupery_core_bin -->
<g id="edge14" class="edge">
<title>exupery&#45;&gt;exupery_core_bin</title>
<path fill="none" stroke="lightgrey" stroke-dasharray="5,2" d="M383.25,-456.03C387.86,-454.85 392.48,-453.82 397,-453 485.07,-437 1131,-457.79 1201,-402 1217.28,-389.03 1232.32,-333.33 1240.21,-299.35"/>
<polygon fill="lightgrey" stroke="lightgrey" points="1243.63,-300.09 1242.43,-289.57 1236.81,-298.55 1243.63,-300.09"/>
<text text-anchor="middle" x="1249" y="-371.8" font-family="Times,serif" font-size="14.00">0.1.18</text>
</g>
<!-- exupery&#45;&gt;exupery_core_data -->
<g id="edge15" class="edge">
<title>exupery&#45;&gt;exupery_core_data</title>
<path fill="none" stroke="lightgrey" stroke-dasharray="5,2" d="M319.97,-452.94C320.17,-424.49 324.71,-378.61 349,-349 374.59,-317.8 415.36,-299 451.22,-287.85"/>
<polygon fill="lightgrey" stroke="lightgrey" points="452.59,-291.09 461.18,-284.9 450.6,-284.38 452.59,-291.09"/>
<text text-anchor="middle" x="372" y="-371.8" font-family="Times,serif" font-size="14.00">0.1.11</text>
</g>
<!-- exupery&#45;&gt;exupery_core_dev -->
<g id="edge16" class="edge">
<title>exupery&#45;&gt;exupery_core_dev</title>
<path fill="none" stroke="lightgrey" stroke-dasharray="5,2" d="M314.56,-452.72C307.6,-418.75 300.62,-358.37 326,-316 353.09,-270.78 371.81,-263.93 421,-245 648.87,-157.3 727.62,-236.82 968,-194 980.46,-191.78 993.66,-188.74 1006.16,-185.53"/>
<polygon fill="lightgrey" stroke="lightgrey" points="1007.23,-188.86 1016.01,-182.93 1005.44,-182.1 1007.23,-188.86"/>
<text text-anchor="middle" x="344.5" y="-319.8" font-family="Times,serif" font-size="14.00">0.1.3</text>
</g>
<!-- exupery_resources -->
<g id="node5" class="node">
<title>exupery_resources</title>
<polygon fill="lightcoral" stroke="black" points="1660.5,-298 1511.5,-298 1511.5,-245 1660.5,-245 1660.5,-298"/>
<text text-anchor="start" x="1519.5" y="-282.8" font-family="Times,serif" font-size="14.00">exupery&#45;resources</text>
<text text-anchor="start" x="1559" y="-267.8" font-family="Times,serif" font-size="14.00">v0.1.20</text>
<text text-anchor="start" x="1532" y="-252.8" font-family="Times,serif" font-size="14.00" fill="red">Outdated Deps</text>
</g>
<!-- exupery_resources&#45;&gt;exupery_core_alg -->
<g id="edge19" class="edge">
<title>exupery_resources&#45;&gt;exupery_core_alg</title>
<path fill="none" stroke="lightgrey" stroke-dasharray="5,2" d="M1514.13,-244.93C1473.11,-229.23 1426.79,-209.28 1411,-194 1380.57,-164.55 1401.24,-136.59 1370,-108 1361.84,-100.53 1351.93,-94.61 1341.66,-89.93"/>
<polygon fill="lightgrey" stroke="lightgrey" points="1342.73,-86.59 1332.16,-85.98 1340.04,-93.05 1342.73,-86.59"/>
<text text-anchor="middle" x="1434" y="-163.8" font-family="Times,serif" font-size="14.00">0.1.12</text>
</g>
<!-- exupery_resources&#45;&gt;exupery_core_dev -->
<g id="edge21" class="edge">
<title>exupery_resources&#45;&gt;exupery_core_dev</title>
<path fill="none" stroke="lightgrey" stroke-dasharray="5,2" d="M1511.48,-247.97C1506.6,-246.86 1501.75,-245.86 1497,-245 1395.66,-226.73 1363.49,-260.16 1266,-227 1254.45,-223.07 1254.2,-216.84 1243,-212 1211.35,-198.31 1174.6,-188.44 1142.67,-181.59"/>
<polygon fill="lightgrey" stroke="lightgrey" points="1142.99,-178.08 1132.48,-179.48 1141.56,-184.94 1142.99,-178.08"/>
<text text-anchor="middle" x="1284.5" y="-215.8" font-family="Times,serif" font-size="14.00">0.1.3</text>
</g>
<!-- exupery_core_async -->
<g id="node19" class="node">
<title>exupery_core_async</title>
<ellipse fill="yellow" stroke="black" cx="1567" cy="-167.5" rx="100.98" ry="18"/>
<text text-anchor="middle" x="1567" y="-163.8" font-family="Times,serif" font-size="14.00">exupery&#45;core&#45;async</text>
</g>
<!-- exupery_resources&#45;&gt;exupery_core_async -->
<g id="edge20" class="edge">
<title>exupery_resources&#45;&gt;exupery_core_async</title>
<path fill="none" stroke="lightgrey" stroke-dasharray="5,2" d="M1581.21,-244.76C1578.4,-229.7 1574.86,-210.72 1572.02,-195.46"/>
<polygon fill="lightgrey" stroke="lightgrey" points="1575.45,-194.77 1570.18,-185.58 1568.57,-196.05 1575.45,-194.77"/>
<text text-anchor="middle" x="1600" y="-215.8" font-family="Times,serif" font-size="14.00">0.1.43</text>
</g>
<!-- _types_node -->
<g id="node20" class="node">
<title>_types_node</title>
<ellipse fill="yellow" stroke="black" cx="74" cy="-72" rx="70.69" ry="18"/>
<text text-anchor="middle" x="74" y="-68.3" font-family="Times,serif" font-size="14.00">@types/node</text>
</g>
<!-- exupery_resources&#45;&gt;_types_node -->
<g id="edge22" class="edge">
<title>exupery_resources&#45;&gt;_types_node</title>
<path fill="none" stroke="lightgrey" stroke-dasharray="5,2" d="M1511.22,-249.07C1506.41,-247.69 1501.64,-246.33 1497,-245 1469,-236.99 1461.88,-235.42 1434,-227 1373.72,-208.79 1225.95,-152.28 1164,-141 1012.51,-113.41 971.71,-132.16 818,-123 574.61,-108.49 286.64,-88.27 151.43,-78.59"/>
<polygon fill="lightgrey" stroke="lightgrey" points="151.4,-75.08 141.18,-77.86 150.9,-82.06 151.4,-75.08"/>
<text text-anchor="middle" x="1357" y="-163.8" font-family="Times,serif" font-size="14.00">24.7.1</text>
</g>
<!-- exupery_standard_library -->
<g id="node6" class="node">
<title>exupery_standard_library</title>
<polygon fill="lightcoral" stroke="black" points="872.5,-194 677.5,-194 677.5,-141 872.5,-141 872.5,-194"/>
<text text-anchor="start" x="685.5" y="-178.8" font-family="Times,serif" font-size="14.00">exupery&#45;standard&#45;library</text>
<text text-anchor="start" x="748" y="-163.8" font-family="Times,serif" font-size="14.00">v0.1.17</text>
<text text-anchor="start" x="721" y="-148.8" font-family="Times,serif" font-size="14.00" fill="red">Outdated Deps</text>
</g>
<!-- exupery_standard_library&#45;&gt;exupery_core_alg -->
<g id="edge23" class="edge">
<title>exupery_standard_library&#45;&gt;exupery_core_alg</title>
<path fill="none" stroke="lightgrey" stroke-dasharray="5,2" d="M799.65,-140.91C813.02,-128.73 830.56,-115.26 849,-108 906.74,-85.25 1070.63,-77.29 1177.75,-74.5"/>
<polygon fill="lightgrey" stroke="lightgrey" points="1178.03,-77.99 1187.94,-74.25 1177.85,-71 1178.03,-77.99"/>
<text text-anchor="middle" x="872" y="-111.8" font-family="Times,serif" font-size="14.00">0.1.12</text>
</g>
<!-- exupery_standard_library&#45;&gt;_types_node -->
<g id="edge24" class="edge">
<title>exupery_standard_library&#45;&gt;_types_node</title>
<path fill="none" stroke="lightgrey" stroke-dasharray="5,2" d="M677.38,-164.19C483.44,-159.13 66.34,-145.65 45,-123 37.94,-115.51 41.2,-105.99 47.63,-97.27"/>
<polygon fill="lightgrey" stroke="lightgrey" points="50.38,-99.44 54.24,-89.58 45.07,-94.89 50.38,-99.44"/>
<text text-anchor="middle" x="68" y="-111.8" font-family="Times,serif" font-size="14.00">24.9.1</text>
</g>
<!-- pareto -->
<g id="node7" class="node">
<title>pareto</title>
<polygon fill="lightcoral" stroke="black" points="481,-714 357,-714 357,-661 481,-661 481,-714"/>
<text text-anchor="start" x="395.5" y="-698.8" font-family="Times,serif" font-size="14.00">pareto</text>
<text text-anchor="start" x="387.5" y="-683.8" font-family="Times,serif" font-size="14.00">v0.76.68</text>
<text text-anchor="start" x="365" y="-668.8" font-family="Times,serif" font-size="14.00" fill="red">Outdated Deps</text>
</g>
<!-- pareto&#45;&gt;astn -->
<g id="edge25" class="edge">
<title>pareto&#45;&gt;astn</title>
<path fill="none" stroke="red" stroke-width="2" d="M481.44,-673.58C572.9,-654.66 742.92,-619.48 839.69,-599.46"/>
<polygon fill="red" stroke="red" stroke-width="2" points="840.6,-602.85 849.68,-597.39 839.18,-595.99 840.6,-602.85"/>
<text text-anchor="middle" x="727" y="-631.8" font-family="Times,serif" font-size="14.00">0.111.29</text>
</g>
<!-- pareto&#45;&gt;exupery -->
<g id="edge26" class="edge">
<title>pareto&#45;&gt;exupery</title>
<path fill="none" stroke="red" stroke-width="2" d="M394.94,-660.96C382.72,-646.84 368.5,-628.46 359,-610 343.67,-580.2 333.61,-543.28 327.71,-516.5"/>
<polygon fill="red" stroke="red" stroke-width="2" points="331.07,-515.47 325.58,-506.41 324.22,-516.91 331.07,-515.47"/>
<text text-anchor="middle" x="382" y="-579.8" font-family="Times,serif" font-size="14.00">0.1.30</text>
</g>
<!-- pareto&#45;&gt;pareto_fountain_pen -->
<g id="edge31" class="edge">
<title>pareto&#45;&gt;pareto_fountain_pen</title>
<path fill="none" stroke="red" stroke-width="2" d="M481.17,-682.65C620.98,-673.36 950.58,-647.65 983,-610 1028.58,-557.07 940.64,-513.24 976,-453 987.65,-433.15 1006.54,-418.07 1026.61,-406.77"/>
<polygon fill="red" stroke="red" stroke-width="2" points="1028.4,-409.79 1035.58,-402 1025.11,-403.61 1028.4,-409.79"/>
<text text-anchor="middle" x="1008" y="-527.8" font-family="Times,serif" font-size="14.00">0.1.41</text>
</g>
<!-- pareto&#45;&gt;pareto_standard_operations -->
<g id="edge32" class="edge">
<title>pareto&#45;&gt;pareto_standard_operations</title>
<path fill="none" stroke="red" stroke-width="2" d="M417.48,-660.82C413.3,-586.12 403.24,-372.72 423,-349 431.93,-338.28 585.26,-310.57 696.95,-291.62"/>
<polygon fill="red" stroke="red" stroke-width="2" points="697.67,-295.04 706.95,-289.92 696.5,-288.14 697.67,-295.04"/>
<text text-anchor="middle" x="434" y="-475.8" font-family="Times,serif" font-size="14.00">0.1.17</text>
</g>
<!-- pareto&#45;&gt;exupery_core_alg -->
<g id="edge27" class="edge">
<title>pareto&#45;&gt;exupery_core_alg</title>
<path fill="none" stroke="lightgrey" stroke-dasharray="5,2" d="M481.12,-686.75C678.18,-687.1 1287.67,-684.71 1480,-643 1638.01,-608.73 1715.72,-632.03 1817,-506 1868.26,-442.21 1848,-406.33 1848,-324.5 1848,-324.5 1848,-324.5 1848,-166.5 1848,-98.24 1772.36,-123.96 1706,-108 1594.62,-81.22 1462.84,-73.94 1374.8,-72.43"/>
<polygon fill="lightgrey" stroke="lightgrey" points="1374.6,-68.92 1364.55,-72.27 1374.5,-75.92 1374.6,-68.92"/>
<text text-anchor="middle" x="1874" y="-371.8" font-family="Times,serif" font-size="14.00">0.1.12</text>
</g>
<!-- pareto&#45;&gt;exupery_core_bin -->
<g id="edge28" class="edge">
<title>pareto&#45;&gt;exupery_core_bin</title>
<path fill="none" stroke="lightgrey" stroke-dasharray="5,2" d="M481.22,-685.43C698.46,-681.51 1412.42,-666.85 1455,-643 1588.65,-568.12 1680.12,-415.93 1564,-316 1537.22,-292.95 1441.01,-302.78 1406,-298 1378.57,-294.25 1348.58,-289.62 1322.05,-285.33"/>
<polygon fill="lightgrey" stroke="lightgrey" points="1322.5,-281.86 1312.07,-283.71 1321.38,-288.77 1322.5,-281.86"/>
<text text-anchor="middle" x="1636" y="-475.8" font-family="Times,serif" font-size="14.00">0.1.18</text>
</g>
<!-- pareto&#45;&gt;exupery_core_data -->
<g id="edge29" class="edge">
<title>pareto&#45;&gt;exupery_core_data</title>
<path fill="none" stroke="lightgrey" stroke-dasharray="5,2" d="M362.66,-660.91C286.17,-622.16 163.37,-543.48 204,-453 242.21,-367.91 279.59,-357.76 363,-316 389.21,-302.88 419.85,-293.35 447.38,-286.62"/>
<polygon fill="lightgrey" stroke="lightgrey" points="448.44,-289.97 457.37,-284.27 446.84,-283.15 448.44,-289.97"/>
<text text-anchor="middle" x="227" y="-475.8" font-family="Times,serif" font-size="14.00">0.1.11</text>
</g>
<!-- pareto&#45;&gt;exupery_core_dev -->
<g id="edge30" class="edge">
<title>pareto&#45;&gt;exupery_core_dev</title>
<path fill="none" stroke="lightgrey" stroke-dasharray="5,2" d="M356.73,-678.02C312.27,-668.73 254.3,-649.5 219,-610 213.07,-603.36 174.37,-460.49 171,-435 160.15,-352.99 243.36,-360.98 297,-298 315.63,-276.13 310.27,-261.19 334,-245 445.92,-168.62 685.19,-236.14 968,-194 981.05,-192.06 994.87,-189 1007.84,-185.66"/>
<polygon fill="lightgrey" stroke="lightgrey" points="1008.8,-189.03 1017.56,-183.07 1007,-182.26 1008.8,-189.03"/>
<text text-anchor="middle" x="189.5" y="-423.8" font-family="Times,serif" font-size="14.00">0.1.3</text>
</g>
<!-- pareto_boekhouding -->
<g id="node8" class="node">
<title>pareto_boekhouding</title>
<polygon fill="lightcoral" stroke="black" points="1231.5,-506 1072.5,-506 1072.5,-453 1231.5,-453 1231.5,-506"/>
<text text-anchor="start" x="1080.5" y="-490.8" font-family="Times,serif" font-size="14.00">pareto&#45;boekhouding</text>
<text text-anchor="start" x="1129.5" y="-475.8" font-family="Times,serif" font-size="14.00">v0.1.6</text>
<text text-anchor="start" x="1098" y="-460.8" font-family="Times,serif" font-size="14.00" fill="red">Outdated Deps</text>
</g>
<!-- pareto_boekhouding&#45;&gt;pareto_fountain_pen -->
<g id="edge36" class="edge">
<title>pareto_boekhouding&#45;&gt;pareto_fountain_pen</title>
<path fill="none" stroke="yellow" stroke-width="2" d="M1142.16,-452.76C1137.4,-440.32 1131.62,-425.19 1126.46,-411.7"/>
<polygon fill="yellow" stroke="yellow" stroke-width="2" points="1129.68,-410.32 1122.84,-402.23 1123.14,-412.82 1129.68,-410.32"/>
<text text-anchor="middle" x="1157" y="-423.8" font-family="Times,serif" font-size="14.00">0.1.39</text>
</g>
<!-- pareto_boekhouding&#45;&gt;pareto_standard_operations -->
<g id="edge37" class="edge">
<title>pareto_boekhouding&#45;&gt;pareto_standard_operations</title>
<path fill="none" stroke="yellow" stroke-width="2" d="M1072.52,-452.94C1041.43,-440.58 1006.67,-423.67 979,-402 955.55,-383.64 961.97,-366.68 938,-349 919.66,-335.47 909.95,-342.01 890,-331 876.5,-323.55 862.78,-313.92 850.74,-304.63"/>
<polygon fill="yellow" stroke="yellow" stroke-width="2" points="852.71,-301.73 842.69,-298.29 848.37,-307.23 852.71,-301.73"/>
<text text-anchor="middle" x="1002" y="-371.8" font-family="Times,serif" font-size="14.00">0.1.15</text>
</g>
<!-- pareto_boekhouding&#45;&gt;exupery_core_alg -->
<g id="edge33" class="edge">
<title>pareto_boekhouding&#45;&gt;exupery_core_alg</title>
<path fill="none" stroke="lightgrey" stroke-dasharray="5,2" d="M1231.97,-454.78C1234.67,-454.15 1237.35,-453.56 1240,-453 1298.8,-440.6 1316.31,-451.81 1374,-435 1513.18,-394.45 1587.88,-417.46 1670,-298 1709.57,-240.44 1722.07,-194.36 1677,-141 1638.87,-95.86 1479.23,-80.68 1373.24,-75.58"/>
<polygon fill="lightgrey" stroke="lightgrey" points="1373.3,-72.08 1363.15,-75.11 1372.98,-79.07 1373.3,-72.08"/>
<text text-anchor="middle" x="1721" y="-267.8" font-family="Times,serif" font-size="14.00">0.1.12</text>
</g>
<!-- pareto_boekhouding&#45;&gt;exupery_core_bin -->
<g id="edge34" class="edge">
<title>pareto_boekhouding&#45;&gt;exupery_core_bin</title>
<path fill="none" stroke="lightgrey" stroke-dasharray="5,2" d="M1231.51,-454.12C1286.85,-436.34 1352.1,-413.44 1360,-402 1373.38,-382.61 1369.48,-370.56 1360,-349 1348.34,-322.5 1322.08,-303.92 1297.69,-291.72"/>
<polygon fill="lightgrey" stroke="lightgrey" points="1299.01,-288.47 1288.47,-287.35 1296.01,-294.79 1299.01,-288.47"/>
<text text-anchor="middle" x="1391" y="-371.8" font-family="Times,serif" font-size="14.00">0.1.18</text>
</g>
<!-- pareto_boekhouding&#45;&gt;exupery_core_data -->
<g id="edge35" class="edge">
<title>pareto_boekhouding&#45;&gt;exupery_core_data</title>
<path fill="none" stroke="lightgrey" stroke-dasharray="5,2" d="M1072.46,-454.17C1070.96,-453.77 1069.48,-453.38 1068,-453 1015.41,-439.43 880.44,-419.4 829,-402 776.83,-384.36 767.49,-370.98 717,-349 669.38,-328.27 614.24,-306.53 575.3,-291.54"/>
<polygon fill="lightgrey" stroke="lightgrey" points="576.35,-288.2 565.76,-287.89 573.84,-294.74 576.35,-288.2"/>
<text text-anchor="middle" x="852" y="-371.8" font-family="Times,serif" font-size="14.00">0.1.11</text>
</g>
<!-- pareto_fountain_pen&#45;&gt;exupery_resources -->
<g id="edge42" class="edge">
<title>pareto_fountain_pen&#45;&gt;exupery_resources</title>
<path fill="none" stroke="red" stroke-width="2" d="M1192.18,-351.74C1196.83,-350.73 1201.47,-349.8 1206,-349 1300.42,-332.25 1327.26,-351.19 1421,-331 1430.21,-329.02 1469.21,-315.23 1506.97,-301.54"/>
<polygon fill="red" stroke="red" stroke-width="2" points="1508.33,-304.77 1516.53,-298.07 1505.94,-298.19 1508.33,-304.77"/>
<text text-anchor="middle" x="1488" y="-319.8" font-family="Times,serif" font-size="14.00">0.1.20</text>
</g>
<!-- pareto_fountain_pen&#45;&gt;pareto_standard_operations -->
<g id="edge43" class="edge">
<title>pareto_fountain_pen&#45;&gt;pareto_standard_operations</title>
<path fill="none" stroke="red" stroke-width="2" d="M1048.94,-348.96C1021.42,-338.3 988.8,-326.08 959,-316 943.96,-310.91 927.94,-305.81 912.23,-301"/>
<polygon fill="red" stroke="red" stroke-width="2" points="913.09,-297.6 902.51,-298.04 911.05,-304.3 913.09,-297.6"/>
<text text-anchor="middle" x="1020" y="-319.8" font-family="Times,serif" font-size="14.00">0.1.17</text>
</g>
<!-- pareto_fountain_pen&#45;&gt;exupery_core_alg -->
<g id="edge38" class="edge">
<title>pareto_fountain_pen&#45;&gt;exupery_core_alg</title>
<path fill="none" stroke="lightgrey" stroke-dasharray="5,2" d="M1117.74,-348.99C1123.17,-322.37 1133.28,-279.74 1148,-245 1168.99,-195.45 1177.26,-183.71 1210,-141 1222.05,-125.28 1237.36,-109.31 1250.2,-96.8"/>
<polygon fill="lightgrey" stroke="lightgrey" points="1252.64,-99.31 1257.43,-89.86 1247.79,-94.26 1252.64,-99.31"/>
<text text-anchor="middle" x="1185" y="-215.8" font-family="Times,serif" font-size="14.00">0.1.12</text>
</g>
<!-- pareto_fountain_pen&#45;&gt;exupery_core_bin -->
<g id="edge39" class="edge">
<title>pareto_fountain_pen&#45;&gt;exupery_core_bin</title>
<path fill="none" stroke="lightgrey" stroke-dasharray="5,2" d="M1133.94,-348.91C1143.62,-338 1155.69,-325.6 1168,-316 1178.81,-307.56 1191.47,-299.76 1203.4,-293.17"/>
<polygon fill="lightgrey" stroke="lightgrey" points="1205.18,-296.18 1212.34,-288.37 1201.87,-290.02 1205.18,-296.18"/>
<text text-anchor="middle" x="1191" y="-319.8" font-family="Times,serif" font-size="14.00">0.1.18</text>
</g>
<!-- pareto_fountain_pen&#45;&gt;exupery_core_data -->
<g id="edge40" class="edge">
<title>pareto_fountain_pen&#45;&gt;exupery_core_data</title>
<path fill="none" stroke="lightgrey" stroke-dasharray="5,2" d="M1033.75,-352.12C1029.11,-351.01 1024.5,-349.96 1020,-349 1000,-344.73 741.97,-305.41 606.63,-284.87"/>
<polygon fill="lightgrey" stroke="lightgrey" points="607.12,-281.4 596.71,-283.36 606.07,-288.32 607.12,-281.4"/>
<text text-anchor="middle" x="924" y="-319.8" font-family="Times,serif" font-size="14.00">0.1.11</text>
</g>
<!-- pareto_fountain_pen&#45;&gt;exupery_core_dev -->
<g id="edge41" class="edge">
<title>pareto_fountain_pen&#45;&gt;exupery_core_dev</title>
<path fill="none" stroke="lightgrey" stroke-dasharray="5,2" d="M1098.69,-348.73C1091.3,-334.25 1082.84,-315.6 1078,-298 1068.51,-263.51 1065.41,-222.19 1064.41,-195.66"/>
<polygon fill="lightgrey" stroke="lightgrey" points="1067.91,-195.48 1064.12,-185.59 1060.91,-195.69 1067.91,-195.48"/>
<text text-anchor="middle" x="1096.5" y="-267.8" font-family="Times,serif" font-size="14.00">0.1.3</text>
</g>
<!-- pareto_json&#45;&gt;pareto_fountain_pen -->
<g id="edge47" class="edge">
<title>pareto_json&#45;&gt;pareto_fountain_pen</title>
<path fill="none" stroke="red" stroke-width="2" d="M674.09,-457.22C678.78,-455.75 683.46,-454.33 688,-453 719.66,-443.75 729.77,-448.19 760,-435 771.19,-430.12 771.44,-423.92 783,-420 883.04,-386.08 915.92,-420.05 1020,-402 1021.28,-401.78 1022.56,-401.55 1023.85,-401.31"/>
<polygon fill="red" stroke="red" stroke-width="2" points="1024.72,-404.7 1033.83,-399.3 1023.34,-397.84 1024.72,-404.7"/>
<text text-anchor="middle" x="806" y="-423.8" font-family="Times,serif" font-size="14.00">0.1.41</text>
</g>
<!-- pareto_json&#45;&gt;pareto_standard_operations -->
<g id="edge48" class="edge">
<title>pareto_json&#45;&gt;pareto_standard_operations</title>
<path fill="none" stroke="red" stroke-width="2" d="M618.36,-452.84C626.49,-424.51 642.98,-378.95 671,-349 688.99,-329.77 712.91,-314.35 735.99,-302.53"/>
<polygon fill="red" stroke="red" stroke-width="2" points="737.71,-305.59 745.12,-298.01 734.61,-299.31 737.71,-305.59"/>
<text text-anchor="middle" x="694" y="-371.8" font-family="Times,serif" font-size="14.00">0.1.17</text>
</g>
<!-- pareto_json&#45;&gt;exupery_core_alg -->
<g id="edge44" class="edge">
<title>pareto_json&#45;&gt;exupery_core_alg</title>
<path fill="none" stroke="lightgrey" stroke-dasharray="5,2" d="M549.66,-466.3C468.44,-449.78 335.09,-420.28 321,-402 282.61,-352.22 372.98,-246.76 375,-245 530.49,-109.74 614.14,-138.21 818,-108 941.94,-89.63 1086.25,-80.63 1179.25,-76.41"/>
<polygon fill="lightgrey" stroke="lightgrey" points="1179.66,-79.9 1189.49,-75.96 1179.35,-72.9 1179.66,-79.9"/>
<text text-anchor="middle" x="398" y="-267.8" font-family="Times,serif" font-size="14.00">0.1.12</text>
</g>
<!-- pareto_json&#45;&gt;exupery_core_bin -->
<g id="edge45" class="edge">
<title>pareto_json&#45;&gt;exupery_core_bin</title>
<path fill="none" stroke="lightgrey" stroke-dasharray="5,2" d="M674.25,-456.03C678.86,-454.85 683.48,-453.82 688,-453 798.92,-432.86 1086.16,-464.38 1195,-435 1208.63,-431.32 1210.02,-425.55 1223,-420 1246.65,-409.89 1262.9,-422.82 1278,-402 1300.35,-371.17 1280.79,-326.53 1263.94,-298.53"/>
<polygon fill="lightgrey" stroke="lightgrey" points="1266.68,-296.31 1258.39,-289.71 1260.76,-300.04 1266.68,-296.31"/>
<text text-anchor="middle" x="1311" y="-371.8" font-family="Times,serif" font-size="14.00">0.1.18</text>
</g>
<!-- pareto_json&#45;&gt;exupery_core_data -->
<g id="edge46" class="edge">
<title>pareto_json&#45;&gt;exupery_core_data</title>
<path fill="none" stroke="lightgrey" stroke-dasharray="5,2" d="M601.16,-452.83C584.53,-413.45 552.9,-338.55 536.11,-298.8"/>
<polygon fill="lightgrey" stroke="lightgrey" points="539.29,-297.35 532.18,-289.5 532.84,-300.07 539.29,-297.35"/>
<text text-anchor="middle" x="601" y="-371.8" font-family="Times,serif" font-size="14.00">0.1.11</text>
</g>
<!-- pareto_lionweb -->
<g id="node11" class="node">
<title>pareto_lionweb</title>
<polygon fill="lightcoral" stroke="black" points="1824,-714 1700,-714 1700,-661 1824,-661 1824,-714"/>
<text text-anchor="start" x="1708.5" y="-698.8" font-family="Times,serif" font-size="14.00">pareto&#45;lionweb</text>
<text text-anchor="start" x="1739.5" y="-683.8" font-family="Times,serif" font-size="14.00">v0.0.4</text>
<text text-anchor="start" x="1708" y="-668.8" font-family="Times,serif" font-size="14.00" fill="red">Outdated Deps</text>
</g>
<!-- pareto_lionweb&#45;&gt;astn -->
<g id="edge49" class="edge">
<title>pareto_lionweb&#45;&gt;astn</title>
<path fill="none" stroke="red" stroke-width="2" d="M1699.84,-679.04C1545.96,-660.58 1147.89,-612.81 984.07,-593.15"/>
<polygon fill="red" stroke="red" stroke-width="2" points="984.43,-589.67 974.09,-591.95 983.6,-596.62 984.43,-589.67"/>
<text text-anchor="middle" x="1419" y="-631.8" font-family="Times,serif" font-size="14.00">0.111.29</text>
</g>
<!-- pareto_lionweb&#45;&gt;exupery_resources -->
<g id="edge53" class="edge">
<title>pareto_lionweb&#45;&gt;exupery_resources</title>
<path fill="none" stroke="red" stroke-width="2" d="M1765.3,-660.83C1770.09,-617.34 1776.61,-526.74 1759,-453 1742.57,-384.2 1734.85,-358.09 1678,-316 1671.71,-311.34 1664.84,-307 1657.79,-302.99"/>
<polygon fill="red" stroke="red" stroke-width="2" points="1659.23,-299.79 1648.77,-298.1 1655.89,-305.95 1659.23,-299.79"/>
<text text-anchor="middle" x="1790" y="-475.8" font-family="Times,serif" font-size="14.00">0.1.20</text>
</g>
<!-- pareto_lionweb&#45;&gt;pareto_standard_operations -->
<g id="edge54" class="edge">
<title>pareto_lionweb&#45;&gt;pareto_standard_operations</title>
<path fill="none" stroke="red" stroke-width="2" d="M1699.97,-686.07C1481.72,-684.26 760.32,-675.82 724,-643 705.45,-626.24 677.88,-439.11 694,-420 724.52,-383.8 766.58,-436.5 799,-402 822.17,-377.34 823.04,-337.27 819.76,-308.23"/>
<polygon fill="red" stroke="red" stroke-width="2" points="823.2,-307.52 818.4,-298.07 816.26,-308.45 823.2,-307.52"/>
<text text-anchor="middle" x="715" y="-475.8" font-family="Times,serif" font-size="14.00">0.1.17</text>
</g>
<!-- pareto_lionweb&#45;&gt;exupery_core_alg -->
<g id="edge50" class="edge">
<title>pareto_lionweb&#45;&gt;exupery_core_alg</title>
<path fill="none" stroke="lightgrey" stroke-dasharray="5,2" d="M1824.08,-674.97C1871.94,-662.08 1930,-635.85 1930,-584.5 1930,-584.5 1930,-584.5 1930,-166.5 1930,-126.63 1898.95,-122.97 1862,-108 1818.04,-90.18 1528.13,-79.77 1373.22,-75.42"/>
<polygon fill="lightgrey" stroke="lightgrey" points="1373.31,-71.92 1363.22,-75.14 1373.12,-78.91 1373.31,-71.92"/>
<text text-anchor="middle" x="1953" y="-371.8" font-family="Times,serif" font-size="14.00">0.1.12</text>
</g>
<!-- pareto_lionweb&#45;&gt;exupery_core_bin -->
<g id="edge51" class="edge">
<title>pareto_lionweb&#45;&gt;exupery_core_bin</title>
<path fill="none" stroke="lightgrey" stroke-dasharray="5,2" d="M1755.53,-660.96C1735.08,-582.74 1669.29,-349.71 1603,-316 1563.82,-296.07 1449.62,-303.46 1406,-298 1378.16,-294.51 1347.72,-289.87 1320.94,-285.51"/>
<polygon fill="lightgrey" stroke="lightgrey" points="1321.3,-282.02 1310.86,-283.85 1320.16,-288.92 1321.3,-282.02"/>
<text text-anchor="middle" x="1731" y="-475.8" font-family="Times,serif" font-size="14.00">0.1.18</text>
</g>
<!-- exupery_core_rawdata -->
<g id="node21" class="node">
<title>exupery_core_rawdata</title>
<ellipse fill="yellow" stroke="black" cx="2070" cy="-583.5" rx="112.38" ry="18"/>
<text text-anchor="middle" x="2070" y="-579.8" font-family="Times,serif" font-size="14.00">exupery&#45;core&#45;rawdata</text>
</g>
<!-- pareto_lionweb&#45;&gt;exupery_core_rawdata -->
<g id="edge52" class="edge">
<title>pareto_lionweb&#45;&gt;exupery_core_rawdata</title>
<path fill="none" stroke="lightgrey" stroke-dasharray="5,2" d="M1824.38,-674.82C1859.93,-667.36 1905.03,-656.55 1944,-643 1973.79,-632.64 2006.03,-617.6 2030.44,-605.36"/>
<polygon fill="lightgrey" stroke="lightgrey" points="2032.06,-608.46 2039.39,-600.82 2028.89,-602.22 2032.06,-608.46"/>
<text text-anchor="middle" x="1997.5" y="-631.8" font-family="Times,serif" font-size="14.00">0.1.7</text>
</g>
<!-- pareto_standard_operations&#45;&gt;exupery_standard_library -->
<g id="edge56" class="edge">
<title>pareto_standard_operations&#45;&gt;exupery_standard_library</title>
<path fill="none" stroke="red" stroke-width="2" d="M803.41,-244.76C798.78,-232.32 793.14,-217.19 788.11,-203.7"/>
<polygon fill="red" stroke="red" stroke-width="2" points="791.36,-202.38 784.59,-194.23 784.8,-204.82 791.36,-202.38"/>
<text text-anchor="middle" x="819" y="-215.8" font-family="Times,serif" font-size="14.00">0.1.17</text>
</g>
<!-- pareto_standard_operations&#45;&gt;exupery_core_alg -->
<g id="edge55" class="edge">
<title>pareto_standard_operations&#45;&gt;exupery_core_alg</title>
<path fill="none" stroke="lightgrey" stroke-dasharray="5,2" d="M837.87,-244.72C851.43,-230.24 868.2,-211.59 882,-194 899.58,-171.6 894.2,-156.63 918,-141 961.52,-112.43 1097.05,-92.49 1188.29,-81.89"/>
<polygon fill="lightgrey" stroke="lightgrey" points="1188.82,-85.35 1198.36,-80.74 1188.03,-78.4 1188.82,-85.35"/>
<text text-anchor="middle" x="941" y="-163.8" font-family="Times,serif" font-size="14.00">0.1.12</text>
</g>
<!-- pareto_targets -->
<g id="node13" class="node">
<title>pareto_targets</title>
<polygon fill="lightcoral" stroke="black" points="158,-818 34,-818 34,-765 158,-765 158,-818"/>
<text text-anchor="start" x="44.5" y="-802.8" font-family="Times,serif" font-size="14.00">pareto&#45;targets</text>
<text text-anchor="start" x="73.5" y="-787.8" font-family="Times,serif" font-size="14.00">v0.0.3</text>
<text text-anchor="start" x="42" y="-772.8" font-family="Times,serif" font-size="14.00" fill="red">Outdated Deps</text>
</g>
<!-- pareto_targets&#45;&gt;pareto -->
<g id="edge60" class="edge">
<title>pareto_targets&#45;&gt;pareto</title>
<path fill="none" stroke="red" stroke-width="2" d="M158.14,-781.92C200.11,-775.06 256.32,-763.78 304,-747 325.16,-739.55 347.36,-728.98 366.55,-718.87"/>
<polygon fill="red" stroke="red" stroke-width="2" points="368.27,-721.92 375.43,-714.11 364.96,-715.75 368.27,-721.92"/>
<text text-anchor="middle" x="366.5" y="-735.8" font-family="Times,serif" font-size="14.00">0.76.68</text>
</g>
<!-- pareto_targets&#45;&gt;pareto_json -->
<g id="edge61" class="edge">
<title>pareto_targets&#45;&gt;pareto_json</title>
<path fill="none" stroke="red" stroke-width="2" d="M141.73,-764.98C203.03,-730.57 315.02,-667.03 409,-610 462.88,-577.3 523.71,-538.2 564.61,-511.58"/>
<polygon fill="red" stroke="red" stroke-width="2" points="566.56,-514.48 573.03,-506.09 562.74,-508.62 566.56,-514.48"/>
<text text-anchor="middle" x="399" y="-631.8" font-family="Times,serif" font-size="14.00">0.1.15</text>
</g>
<!-- pareto_targets&#45;&gt;exupery_core_alg -->
<g id="edge57" class="edge">
<title>pareto_targets&#45;&gt;exupery_core_alg</title>
<path fill="none" stroke="lightgrey" stroke-dasharray="5,2" d="M50.81,-764.89C25.91,-747.11 0,-720.84 0,-688.5 0,-688.5 0,-688.5 0,-478.5 0,-271.79 129.19,-220.5 320,-141 472.72,-77.37 965.08,-71.56 1177.23,-72.14"/>
<polygon fill="lightgrey" stroke="lightgrey" points="1177.41,-75.64 1187.42,-72.17 1177.44,-68.64 1177.41,-75.64"/>
<text text-anchor="middle" x="27" y="-423.8" font-family="Times,serif" font-size="14.00">0.1.12</text>
</g>
<!-- pareto_targets&#45;&gt;exupery_core_data -->
<g id="edge58" class="edge">
<title>pareto_targets&#45;&gt;exupery_core_data</title>
<path fill="none" stroke="lightgrey" stroke-dasharray="5,2" d="M94.21,-764.85C89.5,-690.39 79.68,-475.95 118,-420 200.96,-298.86 281.26,-327.92 425,-298 437.46,-295.41 450.7,-292.29 463.33,-289.14"/>
<polygon fill="lightgrey" stroke="lightgrey" points="464.47,-292.46 473.3,-286.62 462.75,-285.68 464.47,-292.46"/>
<text text-anchor="middle" x="116" y="-527.8" font-family="Times,serif" font-size="14.00">0.1.11</text>
</g>
<!-- pareto_targets&#45;&gt;exupery_core_dev -->
<g id="edge59" class="edge">
<title>pareto_targets&#45;&gt;exupery_core_dev</title>
<path fill="none" stroke="lightgrey" stroke-dasharray="5,2" d="M75.37,-764.91C61.6,-745.22 46,-716.7 46,-688.5 46,-688.5 46,-688.5 46,-530.5 46,-369.76 125.68,-319.71 268,-245 308.32,-223.83 320.19,-220.1 365,-212 628.84,-164.29 702.68,-232.67 968,-194 981.05,-192.1 994.88,-189.05 1007.85,-185.72"/>
<polygon fill="lightgrey" stroke="lightgrey" points="1008.81,-189.09 1017.57,-183.13 1007.01,-182.33 1008.81,-189.09"/>
<text text-anchor="middle" x="71.5" y="-475.8" font-family="Times,serif" font-size="14.00">0.1.3</text>
</g>
<!-- pareto_vscode_backend -->
<g id="node14" class="node">
<title>pareto_vscode_backend</title>
<polygon fill="lightblue" stroke="black" points="509,-810.5 329,-810.5 329,-772.5 509,-772.5 509,-810.5"/>
<text text-anchor="start" x="337" y="-795.3" font-family="Times,serif" font-size="14.00">pareto&#45;vscode&#45;backend</text>
<text text-anchor="start" x="392" y="-780.3" font-family="Times,serif" font-size="14.00">v0.1.22</text>
</g>
<!-- pareto_vscode_backend&#45;&gt;pareto -->
<g id="edge62" class="edge">
<title>pareto_vscode_backend&#45;&gt;pareto</title>
<path fill="none" stroke="red" stroke-width="2" d="M419,-772.26C419,-759.01 419,-740.63 419,-724.47"/>
<polygon fill="red" stroke="red" stroke-width="2" points="422.5,-724.24 419,-714.24 415.5,-724.24 422.5,-724.24"/>
<text text-anchor="middle" x="446.5" y="-735.8" font-family="Times,serif" font-size="14.00">0.76.68</text>
</g>
<!-- legend_title -->
<g id="node22" class="node">
<title>legend_title</title>
<text text-anchor="middle" x="74" y="-14.3" font-family="Times,serif" font-size="14.00">Legend</text>
</g>
<!-- healthy_project -->
<g id="node23" class="node">
<title>healthy_project</title>
<polygon fill="lightblue" stroke="black" points="272,-36 144,-36 144,0 272,0 272,-36"/>
<text text-anchor="middle" x="208" y="-14.3" font-family="Times,serif" font-size="14.00">Healthy Project</text>
</g>
<!-- legend_title&#45;&gt;healthy_project -->
<!-- problematic_project -->
<g id="node24" class="node">
<title>problematic_project</title>
<polygon fill="lightcoral" stroke="black" points="460.5,-36 307.5,-36 307.5,0 460.5,0 460.5,-36"/>
<text text-anchor="middle" x="384" y="-14.3" font-family="Times,serif" font-size="14.00">Project with Issues</text>
</g>
<!-- healthy_project&#45;&gt;problematic_project -->
<!-- edge_ok -->
<g id="node29" class="node">
<title>edge_ok</title>
<text text-anchor="middle" x="1250" y="-14.3" font-family="Times,serif" font-size="14.00">Up to date</text>
</g>
<!-- healthy_project&#45;&gt;edge_ok -->
<!-- edge_behind -->
<g id="node30" class="node">
<title>edge_behind</title>
<text text-anchor="middle" x="1393" y="-14.3" font-family="Times,serif" font-size="14.00">Version behind</text>
</g>
<!-- healthy_project&#45;&gt;edge_behind -->
<!-- edge_blocked -->
<g id="node31" class="node">
<title>edge_blocked</title>
<text text-anchor="middle" x="1561" y="-14.3" font-family="Times,serif" font-size="14.00">Target has issues</text>
</g>
<!-- healthy_project&#45;&gt;edge_blocked -->
<!-- name_mismatch_project -->
<g id="node25" class="node">
<title>name_mismatch_project</title>
<polygon fill="orange" stroke="black" points="630,-36 496,-36 496,0 630,0 630,-36"/>
<text text-anchor="middle" x="563" y="-14.3" font-family="Times,serif" font-size="14.00">Name Mismatch</text>
</g>
<!-- problematic_project&#45;&gt;name_mismatch_project -->
<!-- unpushed_project -->
<g id="node26" class="node">
<title>unpushed_project</title>
<polygon fill="lightblue" stroke="red" stroke-width="3" points="824,-36 666,-36 666,0 824,0 824,-36"/>
<text text-anchor="middle" x="745" y="-14.3" font-family="Times,serif" font-size="14.00">Unpushed Commits</text>
</g>
<!-- name_mismatch_project&#45;&gt;unpushed_project -->
<!-- external_dep -->
<g id="node27" class="node">
<title>external_dep</title>
<ellipse fill="yellow" stroke="black" cx="951" cy="-18" rx="91.78" ry="18"/>
<text text-anchor="middle" x="951" y="-14.3" font-family="Times,serif" font-size="14.00">External Package</text>
</g>
<!-- unpushed_project&#45;&gt;external_dep -->
<!-- edge_legend_title -->
<g id="node28" class="node">
<title>edge_legend_title</title>
<text text-anchor="middle" x="1108" y="-14.3" font-family="Times,serif" font-size="14.00">Dependencies:</text>
</g>
<!-- edge_legend_title&#45;&gt;edge_ok -->
<!-- edge_ok&#45;&gt;edge_behind -->
<!-- edge_behind&#45;&gt;edge_blocked -->
</g>
</svg>
