<?xml version="1.0" encoding="UTF-8" standalone="no"?>
<!DOCTYPE svg PUBLIC "-//W3C//DTD SVG 1.1//EN"
 "http://www.w3.org/Graphics/SVG/1.1/DTD/svg11.dtd">
<!-- Generated by graphviz version 2.43.0 (0)
 -->
<!-- Title: dependencies Pages: 1 -->
<svg width="2179pt" height="720pt"
 viewBox="0.00 0.00 2179.44 720.00" xmlns="http://www.w3.org/2000/svg" xmlns:xlink="http://www.w3.org/1999/xlink">
<g id="graph0" class="graph" transform="scale(1 1) rotate(0) translate(4 716)">
<title>dependencies</title>
<polygon fill="white" stroke="transparent" points="-4,4 -4,-716 2175.44,-716 2175.44,4 -4,4"/>
<text text-anchor="middle" x="1085.72" y="-696.8" font-family="Times,serif" font-size="14.00">Dependency Graph</text>
<text text-anchor="middle" x="1085.72" y="-681.8" font-family="Times,serif" font-size="14.00">Generated: 2025&#45;10&#45;29T12:43:56.371Z</text>
<text text-anchor="middle" x="1085.72" y="-666.8" font-family="Times,serif" font-size="14.00">Directory: /home/corno/workspace/pareto&#45;canon</text>
<!-- astn -->
<g id="node1" class="node">
<title>astn</title>
<polygon fill="lightcoral" stroke="black" points="958,-481 870,-481 870,-443 958,-443 958,-481"/>
<text text-anchor="middle" x="914" y="-465.8" font-family="Times,serif" font-size="14.00">astn</text>
<text text-anchor="middle" x="914" y="-450.8" font-family="Times,serif" font-size="14.00">v0.111.29</text>
</g>
<!-- pareto_fountain_pen -->
<g id="node9" class="node">
<title>pareto_fountain_pen</title>
<polygon fill="lightcoral" stroke="black" points="1192,-303 1034,-303 1034,-265 1192,-265 1192,-303"/>
<text text-anchor="middle" x="1113" y="-287.8" font-family="Times,serif" font-size="14.00">pareto&#45;fountain&#45;pen</text>
<text text-anchor="middle" x="1113" y="-272.8" font-family="Times,serif" font-size="14.00">v0.1.41</text>
</g>
<!-- astn&#45;&gt;pareto_fountain_pen -->
<g id="edge5" class="edge">
<title>astn&#45;&gt;pareto_fountain_pen</title>
<path fill="none" stroke="red" stroke-width="2" d="M934.55,-442.83C970.39,-411.13 1044.38,-345.69 1084.92,-309.83"/>
<polygon fill="red" stroke="red" stroke-width="2" points="1087.39,-312.32 1092.56,-303.07 1082.76,-307.08 1087.39,-312.32"/>
<text text-anchor="middle" x="1057" y="-369.3" font-family="Times,serif" font-size="14.00">0.1.41</text>
</g>
<!-- pareto_json -->
<g id="node10" class="node">
<title>pareto_json</title>
<polygon fill="lightcoral" stroke="black" points="650.5,-392 553.5,-392 553.5,-354 650.5,-354 650.5,-392"/>
<text text-anchor="middle" x="602" y="-376.8" font-family="Times,serif" font-size="14.00">pareto&#45;json</text>
<text text-anchor="middle" x="602" y="-361.8" font-family="Times,serif" font-size="14.00">v0.1.15</text>
</g>
<!-- astn&#45;&gt;pareto_json -->
<g id="edge6" class="edge">
<title>astn&#45;&gt;pareto_json</title>
<path fill="none" stroke="red" stroke-width="2" d="M869.89,-448.89C820.1,-435.2 736.68,-412.17 665,-392 663.56,-391.6 662.11,-391.19 660.64,-390.77"/>
<polygon fill="red" stroke="red" stroke-width="2" points="661.4,-387.35 650.83,-387.99 659.5,-394.08 661.4,-387.35"/>
<text text-anchor="middle" x="804" y="-413.8" font-family="Times,serif" font-size="14.00">0.1.15</text>
</g>
<!-- pareto_standard_operations -->
<g id="node12" class="node">
<title>pareto_standard_operations</title>
<polygon fill="lightcoral" stroke="black" points="919,-214 707,-214 707,-176 919,-176 919,-214"/>
<text text-anchor="middle" x="813" y="-198.8" font-family="Times,serif" font-size="14.00">pareto&#45;standard&#45;operations</text>
<text text-anchor="middle" x="813" y="-183.8" font-family="Times,serif" font-size="14.00">v0.1.17</text>
</g>
<!-- astn&#45;&gt;pareto_standard_operations -->
<g id="edge7" class="edge">
<title>astn&#45;&gt;pareto_standard_operations</title>
<path fill="none" stroke="red" stroke-width="2" d="M903.91,-442.85C890.94,-418.95 868.39,-375.33 854,-336 837.59,-291.15 841.68,-277.44 827,-232 826.11,-229.25 825.12,-226.4 824.1,-223.57"/>
<polygon fill="red" stroke="red" stroke-width="2" points="827.35,-222.28 820.54,-214.17 820.8,-224.76 827.35,-222.28"/>
<text text-anchor="middle" x="877" y="-324.8" font-family="Times,serif" font-size="14.00">0.1.17</text>
</g>
<!-- exupery_core_alg -->
<g id="node15" class="node">
<title>exupery_core_alg</title>
<ellipse fill="yellow" stroke="black" cx="1279" cy="-18" rx="88.28" ry="18"/>
<text text-anchor="middle" x="1279" y="-14.3" font-family="Times,serif" font-size="14.00">exupery&#45;core&#45;alg</text>
</g>
<!-- astn&#45;&gt;exupery_core_alg -->
<g id="edge1" class="edge">
<title>astn&#45;&gt;exupery_core_alg</title>
<path fill="none" stroke="lightgrey" stroke-dasharray="5,2" d="M958.44,-459.23C1082.33,-453.8 1429.33,-435.05 1534,-392 1559.16,-381.65 1559.59,-369.43 1582,-354 1663.34,-298.01 1773,-339.25 1773,-240.5 1773,-240.5 1773,-240.5 1773,-105 1773,-46.23 1708.02,-68.25 1651,-54 1559.9,-31.24 1452.89,-23.02 1377.09,-20.19"/>
<polygon fill="lightgrey" stroke="lightgrey" points="1377.19,-16.69 1367.07,-19.84 1376.94,-23.68 1377.19,-16.69"/>
<text text-anchor="middle" x="1796" y="-235.8" font-family="Times,serif" font-size="14.00">0.1.12</text>
</g>
<!-- exupery_core_bin -->
<g id="node16" class="node">
<title>exupery_core_bin</title>
<ellipse fill="yellow" stroke="black" cx="1249" cy="-195" rx="89.08" ry="18"/>
<text text-anchor="middle" x="1249" y="-191.3" font-family="Times,serif" font-size="14.00">exupery&#45;core&#45;bin</text>
</g>
<!-- astn&#45;&gt;exupery_core_bin -->
<g id="edge2" class="edge">
<title>astn&#45;&gt;exupery_core_bin</title>
<path fill="none" stroke="lightgrey" stroke-dasharray="5,2" d="M958.13,-443.19C989.37,-431.47 1032.56,-417.04 1072,-410 1095.92,-405.73 1492.18,-409.53 1509,-392 1537.93,-361.86 1556.05,-297.64 1490,-232 1487.1,-229.11 1399.49,-216.54 1330.74,-207.06"/>
<polygon fill="lightgrey" stroke="lightgrey" points="1331.13,-203.58 1320.74,-205.69 1330.17,-210.52 1331.13,-203.58"/>
<text text-anchor="middle" x="1559" y="-324.8" font-family="Times,serif" font-size="14.00">0.1.18</text>
</g>
<!-- exupery_core_data -->
<g id="node17" class="node">
<title>exupery_core_data</title>
<ellipse fill="yellow" stroke="black" cx="525" cy="-195" rx="94.78" ry="18"/>
<text text-anchor="middle" x="525" y="-191.3" font-family="Times,serif" font-size="14.00">exupery&#45;core&#45;data</text>
</g>
<!-- astn&#45;&gt;exupery_core_data -->
<g id="edge3" class="edge">
<title>astn&#45;&gt;exupery_core_data</title>
<path fill="none" stroke="lightgrey" stroke-dasharray="5,2" d="M869.9,-458.62C782.26,-452.98 590.57,-435.83 544,-392 520.22,-369.62 521.35,-271.48 523.46,-223.12"/>
<polygon fill="lightgrey" stroke="lightgrey" points="526.96,-223.22 523.94,-213.06 519.96,-222.88 526.96,-223.22"/>
<text text-anchor="middle" x="549" y="-324.8" font-family="Times,serif" font-size="14.00">0.1.11</text>
</g>
<!-- exupery_core_dev -->
<g id="node18" class="node">
<title>exupery_core_dev</title>
<ellipse fill="yellow" stroke="black" cx="1067" cy="-106" rx="90.98" ry="18"/>
<text text-anchor="middle" x="1067" y="-102.3" font-family="Times,serif" font-size="14.00">exupery&#45;core&#45;dev</text>
</g>
<!-- astn&#45;&gt;exupery_core_dev -->
<g id="edge4" class="edge">
<title>astn&#45;&gt;exupery_core_dev</title>
<path fill="none" stroke="lightgrey" stroke-dasharray="5,2" d="M912.57,-442.83C910.37,-416.09 905.8,-364.58 900,-321 898.93,-312.96 897.67,-311.08 897,-303 895.61,-286.17 887.2,-278.76 897,-265 911.19,-245.08 928.84,-260.85 949,-247 993.83,-216.21 1031.45,-164.03 1051.47,-132.82"/>
<polygon fill="lightgrey" stroke="lightgrey" points="1054.51,-134.55 1056.87,-124.22 1048.59,-130.83 1054.51,-134.55"/>
<text text-anchor="middle" x="915.5" y="-280.3" font-family="Times,serif" font-size="14.00">0.1.3</text>
</g>
<!-- astn_to_git -->
<g id="node2" class="node">
<title>astn_to_git</title>
<polygon fill="lightcoral" stroke="black" points="1500,-392 1410,-392 1410,-354 1500,-354 1500,-392"/>
<text text-anchor="middle" x="1455" y="-376.8" font-family="Times,serif" font-size="14.00">astn&#45;to&#45;git</text>
<text text-anchor="middle" x="1455" y="-361.8" font-family="Times,serif" font-size="14.00">vn/a</text>
</g>
<!-- astn_to_git&#45;&gt;pareto_fountain_pen -->
<g id="edge10" class="edge">
<title>astn_to_git&#45;&gt;pareto_fountain_pen</title>
<path fill="none" stroke="yellow" stroke-width="2" d="M1409.98,-357.25C1406.6,-356.15 1403.25,-355.06 1400,-354 1354.69,-339.26 1344.14,-332.91 1298,-321 1296.71,-320.67 1248.85,-311.36 1202.14,-302.29"/>
<polygon fill="yellow" stroke="yellow" stroke-width="2" points="1202.69,-298.83 1192.21,-300.36 1201.36,-305.7 1202.69,-298.83"/>
<text text-anchor="middle" x="1371" y="-324.8" font-family="Times,serif" font-size="14.00">0.1.39</text>
</g>
<!-- astn_to_git&#45;&gt;exupery_core_alg -->
<g id="edge8" class="edge">
<title>astn_to_git&#45;&gt;exupery_core_alg</title>
<path fill="none" stroke="lightgrey" stroke-dasharray="5,2" d="M1500.31,-365.48C1533.86,-359.61 1575.49,-349.79 1586,-336 1606.06,-309.68 1655.69,-317.27 1564,-232 1529.33,-199.76 1500.45,-236.89 1459,-214 1425.8,-195.67 1370.88,-114.72 1345,-87 1331.2,-72.22 1315.45,-55.96 1302.79,-43.05"/>
<polygon fill="lightgrey" stroke="lightgrey" points="1305.24,-40.55 1295.73,-35.87 1300.24,-45.46 1305.24,-40.55"/>
<text text-anchor="middle" x="1482" y="-191.3" font-family="Times,serif" font-size="14.00">0.1.12</text>
</g>
<!-- astn_to_git&#45;&gt;exupery_core_dev -->
<g id="edge9" class="edge">
<title>astn_to_git&#45;&gt;exupery_core_dev</title>
<path fill="none" stroke="lightgrey" stroke-dasharray="5,2" d="M1473.86,-353.96C1501.29,-325.55 1545.72,-269.73 1515,-232 1490.07,-201.38 1464.43,-229.23 1428,-214 1399.91,-202.26 1399.69,-186.18 1371,-176 1290.64,-147.49 1261.63,-182.62 1180,-158 1166.48,-153.92 1164.74,-149.09 1152,-143 1140.14,-137.32 1127.14,-131.59 1114.97,-126.41"/>
<polygon fill="lightgrey" stroke="lightgrey" points="1115.99,-123.05 1105.41,-122.4 1113.27,-129.5 1115.99,-123.05"/>
<text text-anchor="middle" x="1541.5" y="-235.8" font-family="Times,serif" font-size="14.00">0.1.3</text>
</g>
<!-- astn_to_xml -->
<g id="node3" class="node">
<title>astn_to_xml</title>
<polygon fill="orange" stroke="black" points="1391.5,-392 1294.5,-392 1294.5,-354 1391.5,-354 1391.5,-392"/>
<text text-anchor="middle" x="1343" y="-376.8" font-family="Times,serif" font-size="14.00">astn&#45;to&#45;xml</text>
<text text-anchor="middle" x="1343" y="-361.8" font-family="Times,serif" font-size="14.00">vn/a</text>
</g>
<!-- astn_to_xml&#45;&gt;pareto_fountain_pen -->
<g id="edge12" class="edge">
<title>astn_to_xml&#45;&gt;pareto_fountain_pen</title>
<path fill="none" stroke="yellow" stroke-width="2" d="M1296.95,-353.99C1271.62,-344.14 1239.62,-331.79 1211,-321 1198.5,-316.29 1185.07,-311.31 1172.29,-306.6"/>
<polygon fill="yellow" stroke="yellow" stroke-width="2" points="1173.26,-303.23 1162.66,-303.06 1170.84,-309.8 1173.26,-303.23"/>
<text text-anchor="middle" x="1271" y="-324.8" font-family="Times,serif" font-size="14.00">0.1.39</text>
</g>
<!-- astn_to_xml&#45;&gt;exupery_core_dev -->
<g id="edge11" class="edge">
<title>astn_to_xml&#45;&gt;exupery_core_dev</title>
<path fill="none" stroke="lightgrey" stroke-dasharray="5,2" d="M1376.46,-353.86C1384.12,-348.74 1391.81,-342.71 1398,-336 1409.33,-323.72 1411.87,-319.19 1416,-303 1420.17,-286.63 1424.88,-279.37 1416,-265 1406.6,-249.78 1392.47,-259.83 1380,-247 1355.75,-222.05 1375.43,-196.07 1347,-176 1311.99,-151.29 1195.82,-171.05 1155,-158 1134.71,-151.51 1113.99,-139.81 1097.77,-129.25"/>
<polygon fill="lightgrey" stroke="lightgrey" points="1099.5,-126.2 1089.24,-123.54 1095.6,-132.02 1099.5,-126.2"/>
<text text-anchor="middle" x="1398.5" y="-235.8" font-family="Times,serif" font-size="14.00">0.1.3</text>
</g>
<!-- exupery -->
<g id="node4" class="node">
<title>exupery</title>
<polygon fill="lightcoral" stroke="black" points="373,-392 299,-392 299,-354 373,-354 373,-392"/>
<text text-anchor="middle" x="336" y="-376.8" font-family="Times,serif" font-size="14.00">exupery</text>
<text text-anchor="middle" x="336" y="-361.8" font-family="Times,serif" font-size="14.00">v0.1.30</text>
</g>
<!-- exupery&#45;&gt;pareto_fountain_pen -->
<g id="edge17" class="edge">
<title>exupery&#45;&gt;pareto_fountain_pen</title>
<path fill="none" stroke="red" stroke-width="2" d="M373.19,-357.94C378.12,-356.43 383.15,-355.06 388,-354 469.58,-336.22 491.94,-344.54 575,-336 635.93,-329.73 650.96,-326.12 712,-321 848.64,-309.53 883.94,-320.07 1020,-303 1021.29,-302.84 1022.58,-302.67 1023.88,-302.5"/>
<polygon fill="red" stroke="red" stroke-width="2" points="1024.57,-305.93 1033.97,-301.04 1023.57,-299 1024.57,-305.93"/>
<text text-anchor="middle" x="735" y="-324.8" font-family="Times,serif" font-size="14.00">0.1.41</text>
</g>
<!-- exupery&#45;&gt;pareto_standard_operations -->
<g id="edge18" class="edge">
<title>exupery&#45;&gt;pareto_standard_operations</title>
<path fill="none" stroke="red" stroke-width="2" d="M359.08,-353.84C390.52,-329.97 449.43,-288.35 506,-265 566.74,-239.93 638.18,-223.19 696.86,-212.48"/>
<polygon fill="red" stroke="red" stroke-width="2" points="697.68,-215.89 706.91,-210.68 696.45,-209 697.68,-215.89"/>
<text text-anchor="middle" x="529" y="-280.3" font-family="Times,serif" font-size="14.00">0.1.17</text>
</g>
<!-- exupery&#45;&gt;exupery_core_alg -->
<g id="edge13" class="edge">
<title>exupery&#45;&gt;exupery_core_alg</title>
<path fill="none" stroke="lightgrey" stroke-dasharray="5,2" d="M324.43,-353.96C302.84,-317.82 261.54,-234.96 295,-176 333.07,-108.91 371.43,-113.14 444,-87 577.17,-39.03 990.54,-24.7 1181.04,-20.58"/>
<polygon fill="lightgrey" stroke="lightgrey" points="1181.13,-24.08 1191.05,-20.37 1180.98,-17.08 1181.13,-24.08"/>
<text text-anchor="middle" x="318" y="-191.3" font-family="Times,serif" font-size="14.00">0.1.12</text>
</g>
<!-- exupery&#45;&gt;exupery_core_bin -->
<g id="edge14" class="edge">
<title>exupery&#45;&gt;exupery_core_bin</title>
<path fill="none" stroke="lightgrey" stroke-dasharray="5,2" d="M373.13,-357.66C378.07,-356.19 383.12,-354.91 388,-354 476.98,-337.43 1127.85,-356.3 1201,-303 1214.63,-293.07 1230.72,-251.19 1240.38,-222.86"/>
<polygon fill="lightgrey" stroke="lightgrey" points="1243.78,-223.72 1243.63,-213.12 1237.14,-221.5 1243.78,-223.72"/>
<text text-anchor="middle" x="1248" y="-280.3" font-family="Times,serif" font-size="14.00">0.1.18</text>
</g>
<!-- exupery&#45;&gt;exupery_core_data -->
<g id="edge15" class="edge">
<title>exupery&#45;&gt;exupery_core_data</title>
<path fill="none" stroke="lightgrey" stroke-dasharray="5,2" d="M332.96,-353.62C330.21,-330.46 329.18,-290.59 349,-265 371.5,-235.95 407.98,-219.12 441.91,-209.36"/>
<polygon fill="lightgrey" stroke="lightgrey" points="443.12,-212.66 451.86,-206.68 441.3,-205.9 443.12,-212.66"/>
<text text-anchor="middle" x="372" y="-280.3" font-family="Times,serif" font-size="14.00">0.1.11</text>
</g>
<!-- exupery&#45;&gt;exupery_core_dev -->
<g id="edge16" class="edge">
<title>exupery&#45;&gt;exupery_core_dev</title>
<path fill="none" stroke="lightgrey" stroke-dasharray="5,2" d="M328.63,-353.79C318.49,-325.62 303.88,-270.72 326,-232 350.31,-189.44 374.36,-191.07 421,-176 654.6,-100.51 727.87,-158.99 971,-125 979,-123.88 987.35,-122.56 995.63,-121.14"/>
<polygon fill="lightgrey" stroke="lightgrey" points="996.44,-124.55 1005.68,-119.37 995.23,-117.66 996.44,-124.55"/>
<text text-anchor="middle" x="344.5" y="-235.8" font-family="Times,serif" font-size="14.00">0.1.3</text>
</g>
<!-- exupery_resources -->
<g id="node5" class="node">
<title>exupery_resources</title>
<polygon fill="lightcoral" stroke="black" points="1663.5,-214 1514.5,-214 1514.5,-176 1663.5,-176 1663.5,-214"/>
<text text-anchor="middle" x="1589" y="-198.8" font-family="Times,serif" font-size="14.00">exupery&#45;resources</text>
<text text-anchor="middle" x="1589" y="-183.8" font-family="Times,serif" font-size="14.00">v0.1.20</text>
</g>
<!-- exupery_resources&#45;&gt;exupery_core_alg -->
<g id="edge19" class="edge">
<title>exupery_resources&#45;&gt;exupery_core_alg</title>
<path fill="none" stroke="lightgrey" stroke-dasharray="5,2" d="M1514.11,-176.58C1480.65,-165.93 1442.45,-149.52 1414,-125 1386.4,-101.21 1400.83,-77.52 1373,-54 1364.26,-46.61 1353.81,-40.71 1343.1,-36.01"/>
<polygon fill="lightgrey" stroke="lightgrey" points="1344.24,-32.7 1333.66,-32.2 1341.62,-39.19 1344.24,-32.7"/>
<text text-anchor="middle" x="1437" y="-102.3" font-family="Times,serif" font-size="14.00">0.1.12</text>
</g>
<!-- exupery_resources&#45;&gt;exupery_core_dev -->
<g id="edge21" class="edge">
<title>exupery_resources&#45;&gt;exupery_core_dev</title>
<path fill="none" stroke="lightgrey" stroke-dasharray="5,2" d="M1514.33,-178.21C1509.49,-177.4 1504.68,-176.65 1500,-176 1398.01,-161.77 1366.49,-191.16 1269,-158 1257.45,-154.07 1257.3,-147.62 1246,-143 1216.87,-131.09 1183.42,-123 1153.37,-117.56"/>
<polygon fill="lightgrey" stroke="lightgrey" points="1153.77,-114.08 1143.32,-115.82 1152.58,-120.98 1153.77,-114.08"/>
<text text-anchor="middle" x="1287.5" y="-146.8" font-family="Times,serif" font-size="14.00">0.1.3</text>
</g>
<!-- exupery_core_async -->
<g id="node19" class="node">
<title>exupery_core_async</title>
<ellipse fill="yellow" stroke="black" cx="1570" cy="-106" rx="100.98" ry="18"/>
<text text-anchor="middle" x="1570" y="-102.3" font-family="Times,serif" font-size="14.00">exupery&#45;core&#45;async</text>
</g>
<!-- exupery_resources&#45;&gt;exupery_core_async -->
<g id="edge20" class="edge">
<title>exupery_resources&#45;&gt;exupery_core_async</title>
<path fill="none" stroke="lightgrey" stroke-dasharray="5,2" d="M1585.06,-175.97C1582.41,-163.84 1578.87,-147.62 1575.89,-133.95"/>
<polygon fill="lightgrey" stroke="lightgrey" points="1579.29,-133.14 1573.74,-124.12 1572.45,-134.63 1579.29,-133.14"/>
<text text-anchor="middle" x="1604" y="-146.8" font-family="Times,serif" font-size="14.00">0.1.43</text>
</g>
<!-- _types_node -->
<g id="node20" class="node">
<title>_types_node</title>
<ellipse fill="yellow" stroke="black" cx="75" cy="-18" rx="70.69" ry="18"/>
<text text-anchor="middle" x="75" y="-14.3" font-family="Times,serif" font-size="14.00">@types/node</text>
</g>
<!-- exupery_resources&#45;&gt;_types_node -->
<g id="edge22" class="edge">
<title>exupery_resources&#45;&gt;_types_node</title>
<path fill="none" stroke="lightgrey" stroke-dasharray="5,2" d="M1514.2,-176.82C1489.29,-170.99 1461.42,-164.34 1436,-158 1316.03,-128.06 1289.17,-106.08 1167,-87 1014.42,-63.17 974.16,-78.17 820,-69 576.12,-54.49 287.55,-34.25 152.27,-24.57"/>
<polygon fill="lightgrey" stroke="lightgrey" points="152.24,-21.06 142.01,-23.84 151.74,-28.05 152.24,-21.06"/>
<text text-anchor="middle" x="1346" y="-102.3" font-family="Times,serif" font-size="14.00">24.7.1</text>
</g>
<!-- exupery_standard_library -->
<g id="node6" class="node">
<title>exupery_standard_library</title>
<polygon fill="lightcoral" stroke="black" points="875.5,-125 680.5,-125 680.5,-87 875.5,-87 875.5,-125"/>
<text text-anchor="middle" x="778" y="-109.8" font-family="Times,serif" font-size="14.00">exupery&#45;standard&#45;library</text>
<text text-anchor="middle" x="778" y="-94.8" font-family="Times,serif" font-size="14.00">v0.1.17</text>
</g>
<!-- exupery_standard_library&#45;&gt;exupery_core_alg -->
<g id="edge23" class="edge">
<title>exupery_standard_library&#45;&gt;exupery_core_alg</title>
<path fill="none" stroke="lightgrey" stroke-dasharray="5,2" d="M798.05,-86.84C812.09,-75.28 831.87,-61.18 852,-54 910.54,-33.12 1074.6,-24.59 1181.48,-21.18"/>
<polygon fill="lightgrey" stroke="lightgrey" points="1181.75,-24.67 1191.64,-20.86 1181.53,-17.67 1181.75,-24.67"/>
<text text-anchor="middle" x="875" y="-57.8" font-family="Times,serif" font-size="14.00">0.1.12</text>
</g>
<!-- exupery_standard_library&#45;&gt;_types_node -->
<g id="edge24" class="edge">
<title>exupery_standard_library&#45;&gt;_types_node</title>
<path fill="none" stroke="lightgrey" stroke-dasharray="5,2" d="M680.37,-103.73C485.83,-100.72 66.55,-91.64 45,-69 37.84,-61.48 41.24,-51.95 47.88,-43.24"/>
<polygon fill="lightgrey" stroke="lightgrey" points="50.68,-45.36 54.68,-35.55 45.43,-40.72 50.68,-45.36"/>
<text text-anchor="middle" x="68" y="-57.8" font-family="Times,serif" font-size="14.00">24.9.1</text>
</g>
<!-- pareto -->
<g id="node7" class="node">
<title>pareto</title>
<polygon fill="lightcoral" stroke="black" points="449.5,-570 370.5,-570 370.5,-532 449.5,-532 449.5,-570"/>
<text text-anchor="middle" x="410" y="-554.8" font-family="Times,serif" font-size="14.00">pareto</text>
<text text-anchor="middle" x="410" y="-539.8" font-family="Times,serif" font-size="14.00">v0.76.68</text>
</g>
<!-- pareto&#45;&gt;astn -->
<g id="edge25" class="edge">
<title>pareto&#45;&gt;astn</title>
<path fill="none" stroke="red" stroke-width="2" d="M449.55,-543.17C539.06,-527.72 757.34,-490.04 859.54,-472.4"/>
<polygon fill="red" stroke="red" stroke-width="2" points="860.39,-475.81 869.65,-470.66 859.2,-468.91 860.39,-475.81"/>
<text text-anchor="middle" x="725" y="-502.8" font-family="Times,serif" font-size="14.00">0.111.29</text>
</g>
<!-- pareto&#45;&gt;exupery -->
<g id="edge26" class="edge">
<title>pareto&#45;&gt;exupery</title>
<path fill="none" stroke="red" stroke-width="2" d="M388.95,-531.99C375.48,-519.2 358.93,-500.83 350,-481 338.77,-456.04 335.79,-424.72 335.31,-402.43"/>
<polygon fill="red" stroke="red" stroke-width="2" points="338.81,-402.26 335.25,-392.28 331.81,-402.3 338.81,-402.26"/>
<text text-anchor="middle" x="373" y="-458.3" font-family="Times,serif" font-size="14.00">0.1.30</text>
</g>
<!-- pareto&#45;&gt;pareto_fountain_pen -->
<g id="edge31" class="edge">
<title>pareto&#45;&gt;pareto_fountain_pen</title>
<path fill="none" stroke="red" stroke-width="2" d="M449.9,-547.7C571.08,-540.37 928.87,-515.92 967,-481 1009.93,-441.69 964.39,-400.8 999,-354 1013.68,-334.15 1035.93,-318.86 1056.88,-307.78"/>
<polygon fill="red" stroke="red" stroke-width="2" points="1058.73,-310.77 1066.07,-303.13 1055.57,-304.52 1058.73,-310.77"/>
<text text-anchor="middle" x="1010" y="-413.8" font-family="Times,serif" font-size="14.00">0.1.41</text>
</g>
<!-- pareto&#45;&gt;pareto_standard_operations -->
<g id="edge32" class="edge">
<title>pareto&#45;&gt;pareto_standard_operations</title>
<path fill="none" stroke="red" stroke-width="2" d="M408.66,-531.9C404.87,-475.48 396.58,-304.23 432,-265 449.84,-245.24 591.45,-223.52 696.85,-209.83"/>
<polygon fill="red" stroke="red" stroke-width="2" points="697.46,-213.28 706.93,-208.53 696.57,-206.33 697.46,-213.28"/>
<text text-anchor="middle" x="431" y="-369.3" font-family="Times,serif" font-size="14.00">0.1.17</text>
</g>
<!-- pareto&#45;&gt;exupery_core_alg -->
<g id="edge27" class="edge">
<title>pareto&#45;&gt;exupery_core_alg</title>
<path fill="none" stroke="lightgrey" stroke-dasharray="5,2" d="M449.52,-549.43C630.29,-546.72 1374.03,-534.4 1476,-514 1626.47,-483.9 1696.93,-506.58 1799,-392 1845.17,-340.16 1837,-309.92 1837,-240.5 1837,-240.5 1837,-240.5 1837,-105 1837,-46.64 1772.69,-67.84 1716,-54 1653.59,-38.77 1483.48,-28.41 1374.84,-23.11"/>
<polygon fill="lightgrey" stroke="lightgrey" points="1374.68,-19.6 1364.52,-22.62 1374.34,-26.59 1374.68,-19.6"/>
<text text-anchor="middle" x="1860" y="-280.3" font-family="Times,serif" font-size="14.00">0.1.12</text>
</g>
<!-- pareto&#45;&gt;exupery_core_bin -->
<g id="edge28" class="edge">
<title>pareto&#45;&gt;exupery_core_bin</title>
<path fill="none" stroke="lightgrey" stroke-dasharray="5,2" d="M449.72,-549.57C634.61,-547.44 1403.83,-537.22 1449,-514 1569.39,-452.13 1665.66,-321.37 1564,-232 1562.92,-231.05 1427.78,-215.86 1334.88,-205.52"/>
<polygon fill="lightgrey" stroke="lightgrey" points="1335.23,-202.04 1324.91,-204.41 1334.46,-208.99 1335.23,-202.04"/>
<text text-anchor="middle" x="1625" y="-369.3" font-family="Times,serif" font-size="14.00">0.1.18</text>
</g>
<!-- pareto&#45;&gt;exupery_core_data -->
<g id="edge29" class="edge">
<title>pareto&#45;&gt;exupery_core_data</title>
<path fill="none" stroke="lightgrey" stroke-dasharray="5,2" d="M370.3,-534.89C358.56,-529.35 346.15,-522.35 336,-514 272.67,-461.87 213.26,-430.05 244,-354 272.39,-283.78 296.6,-268.45 363,-232 384.86,-220 410.47,-212 434.78,-206.66"/>
<polygon fill="lightgrey" stroke="lightgrey" points="435.66,-210.05 444.74,-204.61 434.24,-203.2 435.66,-210.05"/>
<text text-anchor="middle" x="267" y="-369.3" font-family="Times,serif" font-size="14.00">0.1.11</text>
</g>
<!-- pareto&#45;&gt;exupery_core_dev -->
<g id="edge30" class="edge">
<title>pareto&#45;&gt;exupery_core_dev</title>
<path fill="none" stroke="lightgrey" stroke-dasharray="5,2" d="M370.27,-542.99C334.16,-534.53 282.07,-516.72 252,-481 240.26,-467.05 212.49,-347.69 211,-336 210.16,-329.39 208.69,-327.25 211,-321 214.67,-311.06 325.92,-181.46 335,-176 462.09,-99.59 780.59,-146.24 971,-125 979.57,-124.04 988.53,-122.76 997.37,-121.31"/>
<polygon fill="lightgrey" stroke="lightgrey" points="998.02,-124.75 1007.29,-119.61 996.84,-117.85 998.02,-124.75"/>
<text text-anchor="middle" x="229.5" y="-324.8" font-family="Times,serif" font-size="14.00">0.1.3</text>
</g>
<!-- pareto_boekhouding -->
<g id="node8" class="node">
<title>pareto_boekhouding</title>
<polygon fill="lightcoral" stroke="black" points="1276.5,-392 1117.5,-392 1117.5,-354 1276.5,-354 1276.5,-392"/>
<text text-anchor="middle" x="1197" y="-376.8" font-family="Times,serif" font-size="14.00">pareto&#45;boekhouding</text>
<text text-anchor="middle" x="1197" y="-361.8" font-family="Times,serif" font-size="14.00">v0.1.6</text>
</g>
<!-- pareto_boekhouding&#45;&gt;pareto_fountain_pen -->
<g id="edge36" class="edge">
<title>pareto_boekhouding&#45;&gt;pareto_fountain_pen</title>
<path fill="none" stroke="yellow" stroke-width="2" d="M1179.6,-353.97C1167.43,-341.38 1151.02,-324.38 1137.53,-310.41"/>
<polygon fill="yellow" stroke="yellow" stroke-width="2" points="1139.85,-307.77 1130.38,-303 1134.81,-312.63 1139.85,-307.77"/>
<text text-anchor="middle" x="1184" y="-324.8" font-family="Times,serif" font-size="14.00">0.1.39</text>
</g>
<!-- pareto_boekhouding&#45;&gt;pareto_standard_operations -->
<g id="edge37" class="edge">
<title>pareto_boekhouding&#45;&gt;pareto_standard_operations</title>
<path fill="none" stroke="yellow" stroke-width="2" d="M1117.35,-355.76C1074.45,-344.86 1021.72,-327.86 979,-303 957.53,-290.5 959.05,-278.2 938,-265 919.4,-253.33 911.54,-257 892,-247 876.62,-239.13 860.46,-229.05 846.79,-219.93"/>
<polygon fill="yellow" stroke="yellow" stroke-width="2" points="848.44,-216.83 838.2,-214.12 844.51,-222.62 848.44,-216.83"/>
<text text-anchor="middle" x="1002" y="-280.3" font-family="Times,serif" font-size="14.00">0.1.15</text>
</g>
<!-- pareto_boekhouding&#45;&gt;exupery_core_alg -->
<g id="edge33" class="edge">
<title>pareto_boekhouding&#45;&gt;exupery_core_alg</title>
<path fill="none" stroke="lightgrey" stroke-dasharray="5,2" d="M1276.6,-355.56C1279.43,-355.02 1282.24,-354.5 1285,-354 1335.04,-344.9 1349.25,-350.47 1398,-336 1525.8,-298.08 1594.46,-322.43 1672,-214 1704.9,-168 1716.5,-130.21 1680,-87 1641.87,-41.86 1482.23,-26.68 1376.24,-21.58"/>
<polygon fill="lightgrey" stroke="lightgrey" points="1376.3,-18.08 1366.15,-21.11 1375.98,-25.07 1376.3,-18.08"/>
<text text-anchor="middle" x="1717" y="-191.3" font-family="Times,serif" font-size="14.00">0.1.12</text>
</g>
<!-- pareto_boekhouding&#45;&gt;exupery_core_bin -->
<g id="edge34" class="edge">
<title>pareto_boekhouding&#45;&gt;exupery_core_bin</title>
<path fill="none" stroke="lightgrey" stroke-dasharray="5,2" d="M1259.37,-353.98C1300.53,-340.62 1348.85,-321.57 1360,-303 1368.7,-288.52 1366.8,-280.46 1360,-265 1349.68,-241.54 1326.86,-225.35 1304.58,-214.58"/>
<polygon fill="lightgrey" stroke="lightgrey" points="1305.99,-211.38 1295.44,-210.44 1303.1,-217.75 1305.99,-211.38"/>
<text text-anchor="middle" x="1389" y="-280.3" font-family="Times,serif" font-size="14.00">0.1.18</text>
</g>
<!-- pareto_boekhouding&#45;&gt;exupery_core_data -->
<g id="edge35" class="edge">
<title>pareto_boekhouding&#45;&gt;exupery_core_data</title>
<path fill="none" stroke="lightgrey" stroke-dasharray="5,2" d="M1117.17,-358.51C1025.86,-342.81 882.13,-317.24 829,-303 804.06,-296.31 657.01,-243.63 576.93,-214.77"/>
<polygon fill="lightgrey" stroke="lightgrey" points="577.63,-211.3 567.03,-211.2 575.25,-217.88 577.63,-211.3"/>
<text text-anchor="middle" x="852" y="-280.3" font-family="Times,serif" font-size="14.00">0.1.11</text>
</g>
<!-- pareto_fountain_pen&#45;&gt;exupery_resources -->
<g id="edge42" class="edge">
<title>pareto_fountain_pen&#45;&gt;exupery_resources</title>
<path fill="none" stroke="red" stroke-width="2" d="M1192.05,-267.1C1196.76,-266.34 1201.44,-265.63 1206,-265 1300.99,-251.87 1326.89,-265.41 1421,-247 1442.93,-242.71 1447.63,-238.54 1469,-232 1484.93,-227.12 1502.07,-221.94 1518.27,-217.07"/>
<polygon fill="red" stroke="red" stroke-width="2" points="1519.65,-220.31 1528.22,-214.09 1517.64,-213.61 1519.65,-220.31"/>
<text text-anchor="middle" x="1492" y="-235.8" font-family="Times,serif" font-size="14.00">0.1.20</text>
</g>
<!-- pareto_fountain_pen&#45;&gt;pareto_standard_operations -->
<g id="edge43" class="edge">
<title>pareto_fountain_pen&#45;&gt;pareto_standard_operations</title>
<path fill="none" stroke="red" stroke-width="2" d="M1059.95,-264.95C1020.15,-251.46 970.89,-234.86 961,-232 942.09,-226.54 921.67,-221.21 902.21,-216.4"/>
<polygon fill="red" stroke="red" stroke-width="2" points="902.99,-212.99 892.44,-214.01 901.32,-219.79 902.99,-212.99"/>
<text text-anchor="middle" x="1029" y="-235.8" font-family="Times,serif" font-size="14.00">0.1.17</text>
</g>
<!-- pareto_fountain_pen&#45;&gt;exupery_core_alg -->
<g id="edge38" class="edge">
<title>pareto_fountain_pen&#45;&gt;exupery_core_alg</title>
<path fill="none" stroke="lightgrey" stroke-dasharray="5,2" d="M1117.8,-264.98C1123.95,-243.21 1135.68,-205.8 1151,-176 1173.04,-133.13 1182.33,-124.2 1213,-87 1225.69,-71.61 1241.15,-55.55 1253.93,-42.91"/>
<polygon fill="lightgrey" stroke="lightgrey" points="1256.4,-45.38 1261.09,-35.89 1251.5,-40.38 1256.4,-45.38"/>
<text text-anchor="middle" x="1193" y="-146.8" font-family="Times,serif" font-size="14.00">0.1.12</text>
</g>
<!-- pareto_fountain_pen&#45;&gt;exupery_core_bin -->
<g id="edge39" class="edge">
<title>pareto_fountain_pen&#45;&gt;exupery_core_bin</title>
<path fill="none" stroke="lightgrey" stroke-dasharray="5,2" d="M1129.58,-264.87C1139.91,-254.32 1153.87,-241.32 1168,-232 1177.54,-225.71 1188.36,-220.04 1198.91,-215.16"/>
<polygon fill="lightgrey" stroke="lightgrey" points="1200.37,-218.34 1208.08,-211.08 1197.52,-211.95 1200.37,-218.34"/>
<text text-anchor="middle" x="1191" y="-235.8" font-family="Times,serif" font-size="14.00">0.1.18</text>
</g>
<!-- pareto_fountain_pen&#45;&gt;exupery_core_data -->
<g id="edge40" class="edge">
<title>pareto_fountain_pen&#45;&gt;exupery_core_data</title>
<path fill="none" stroke="lightgrey" stroke-dasharray="5,2" d="M1033.9,-267.4C1029.2,-266.56 1024.54,-265.76 1020,-265 877.67,-241.32 711.39,-219.29 612.32,-206.76"/>
<polygon fill="lightgrey" stroke="lightgrey" points="612.72,-203.28 602.36,-205.5 611.84,-210.23 612.72,-203.28"/>
<text text-anchor="middle" x="922" y="-235.8" font-family="Times,serif" font-size="14.00">0.1.11</text>
</g>
<!-- pareto_fountain_pen&#45;&gt;exupery_core_dev -->
<g id="edge41" class="edge">
<title>pareto_fountain_pen&#45;&gt;exupery_core_dev</title>
<path fill="none" stroke="lightgrey" stroke-dasharray="5,2" d="M1102.72,-264.85C1095.5,-251.27 1086.22,-232.01 1081,-214 1073.32,-187.52 1069.85,-156.13 1068.28,-134.23"/>
<polygon fill="lightgrey" stroke="lightgrey" points="1071.76,-133.76 1067.63,-124 1064.77,-134.2 1071.76,-133.76"/>
<text text-anchor="middle" x="1099.5" y="-191.3" font-family="Times,serif" font-size="14.00">0.1.3</text>
</g>
<!-- pareto_json&#45;&gt;pareto_fountain_pen -->
<g id="edge47" class="edge">
<title>pareto_json&#45;&gt;pareto_fountain_pen</title>
<path fill="none" stroke="red" stroke-width="2" d="M650.72,-357.59C655.53,-356.31 660.35,-355.09 665,-354 707.68,-343.97 721.29,-352.29 762,-336 773.33,-331.47 773.44,-324.92 785,-321 884.19,-287.34 916.19,-316.98 1020,-303 1021.28,-302.83 1022.58,-302.65 1023.88,-302.46"/>
<polygon fill="red" stroke="red" stroke-width="2" points="1024.59,-305.89 1033.95,-300.94 1023.54,-298.97 1024.59,-305.89"/>
<text text-anchor="middle" x="808" y="-324.8" font-family="Times,serif" font-size="14.00">0.1.41</text>
</g>
<!-- pareto_json&#45;&gt;pareto_standard_operations -->
<g id="edge48" class="edge">
<title>pareto_json&#45;&gt;pareto_standard_operations</title>
<path fill="none" stroke="red" stroke-width="2" d="M609.84,-353.95C620.68,-330.77 642.22,-290.51 671,-265 693.65,-244.92 723.19,-229.33 749.45,-218.08"/>
<polygon fill="red" stroke="red" stroke-width="2" points="751.07,-221.2 758.96,-214.14 748.38,-214.74 751.07,-221.2"/>
<text text-anchor="middle" x="694" y="-280.3" font-family="Times,serif" font-size="14.00">0.1.17</text>
</g>
<!-- pareto_json&#45;&gt;exupery_core_alg -->
<g id="edge44" class="edge">
<title>pareto_json&#45;&gt;exupery_core_alg</title>
<path fill="none" stroke="lightgrey" stroke-dasharray="5,2" d="M553.49,-366.77C482.87,-358.05 357.19,-337.94 330,-303 299.09,-263.27 361.51,-187.3 375,-176 532.2,-44.3 617.14,-84.04 820,-54 944.4,-35.58 1089.28,-26.58 1182.47,-22.38"/>
<polygon fill="lightgrey" stroke="lightgrey" points="1182.89,-25.86 1192.73,-21.93 1182.59,-18.87 1182.89,-25.86"/>
<text text-anchor="middle" x="398" y="-191.3" font-family="Times,serif" font-size="14.00">0.1.12</text>
</g>
<!-- pareto_json&#45;&gt;exupery_core_bin -->
<g id="edge45" class="edge">
<title>pareto_json&#45;&gt;exupery_core_bin</title>
<path fill="none" stroke="lightgrey" stroke-dasharray="5,2" d="M650.58,-356.85C655.41,-355.73 660.28,-354.74 665,-354 781.41,-335.68 1081.2,-366.62 1195,-336 1208.63,-332.33 1210.02,-326.55 1223,-321 1246.65,-310.89 1262.9,-323.82 1278,-303 1295.45,-278.93 1281.28,-244.94 1267.29,-221.77"/>
<polygon fill="lightgrey" stroke="lightgrey" points="1270.14,-219.72 1261.81,-213.17 1264.23,-223.48 1270.14,-219.72"/>
<text text-anchor="middle" x="1310" y="-280.3" font-family="Times,serif" font-size="14.00">0.1.18</text>
</g>
<!-- pareto_json&#45;&gt;exupery_core_data -->
<g id="edge46" class="edge">
<title>pareto_json&#45;&gt;exupery_core_data</title>
<path fill="none" stroke="lightgrey" stroke-dasharray="5,2" d="M594.05,-353.83C580.39,-322.6 552.4,-258.63 536.57,-222.45"/>
<polygon fill="lightgrey" stroke="lightgrey" points="539.67,-220.79 532.45,-213.03 533.25,-223.6 539.67,-220.79"/>
<text text-anchor="middle" x="595" y="-280.3" font-family="Times,serif" font-size="14.00">0.1.11</text>
</g>
<!-- pareto_lionweb -->
<g id="node11" class="node">
<title>pareto_lionweb</title>
<polygon fill="lightcoral" stroke="black" points="1808.5,-570 1685.5,-570 1685.5,-532 1808.5,-532 1808.5,-570"/>
<text text-anchor="middle" x="1747" y="-554.8" font-family="Times,serif" font-size="14.00">pareto&#45;lionweb</text>
<text text-anchor="middle" x="1747" y="-539.8" font-family="Times,serif" font-size="14.00">v0.0.4</text>
</g>
<!-- pareto_lionweb&#45;&gt;astn -->
<g id="edge49" class="edge">
<title>pareto_lionweb&#45;&gt;astn</title>
<path fill="none" stroke="red" stroke-width="2" d="M1685.41,-543.57C1528.83,-527.21 1117.41,-484.24 968.66,-468.71"/>
<polygon fill="red" stroke="red" stroke-width="2" points="968.72,-465.2 958.41,-467.64 967.99,-472.16 968.72,-465.2"/>
<text text-anchor="middle" x="1413" y="-502.8" font-family="Times,serif" font-size="14.00">0.111.29</text>
</g>
<!-- pareto_lionweb&#45;&gt;exupery_resources -->
<g id="edge53" class="edge">
<title>pareto_lionweb&#45;&gt;exupery_resources</title>
<path fill="none" stroke="red" stroke-width="2" d="M1748.91,-531.93C1752.12,-497.09 1757.04,-418.37 1744,-354 1735.53,-312.18 1730.7,-301.13 1708,-265 1697.45,-248.22 1694.26,-243.33 1678,-232 1670.57,-226.82 1662.28,-222.22 1653.84,-218.18"/>
<polygon fill="red" stroke="red" stroke-width="2" points="1655.2,-214.96 1644.65,-214.02 1652.31,-221.33 1655.2,-214.96"/>
<text text-anchor="middle" x="1772" y="-369.3" font-family="Times,serif" font-size="14.00">0.1.20</text>
</g>
<!-- pareto_lionweb&#45;&gt;pareto_standard_operations -->
<g id="edge54" class="edge">
<title>pareto_lionweb&#45;&gt;pareto_standard_operations</title>
<path fill="none" stroke="red" stroke-width="2" d="M1685.13,-550.18C1465.67,-550.52 735.8,-549.02 701,-514 670.76,-483.57 668.4,-353.84 696,-321 725.9,-285.42 766.85,-336.56 799,-303 818.76,-282.38 819.95,-248.37 817.68,-224.24"/>
<polygon fill="red" stroke="red" stroke-width="2" points="821.15,-223.76 816.49,-214.25 814.2,-224.59 821.15,-223.76"/>
<text text-anchor="middle" x="706" y="-369.3" font-family="Times,serif" font-size="14.00">0.1.17</text>
</g>
<!-- pareto_lionweb&#45;&gt;exupery_core_alg -->
<g id="edge50" class="edge">
<title>pareto_lionweb&#45;&gt;exupery_core_alg</title>
<path fill="none" stroke="lightgrey" stroke-dasharray="5,2" d="M1808.61,-543.86C1857.96,-535.14 1919,-514.03 1919,-463 1919,-463 1919,-463 1919,-105 1919,-67.22 1886.46,-67.04 1851,-54 1766.9,-23.08 1517.99,-18.34 1377.81,-18.25"/>
<polygon fill="lightgrey" stroke="lightgrey" points="1377.5,-14.75 1367.5,-18.25 1377.5,-21.75 1377.5,-14.75"/>
<text text-anchor="middle" x="1942" y="-280.3" font-family="Times,serif" font-size="14.00">0.1.12</text>
</g>
<!-- pareto_lionweb&#45;&gt;exupery_core_bin -->
<g id="edge51" class="edge">
<title>pareto_lionweb&#45;&gt;exupery_core_bin</title>
<path fill="none" stroke="lightgrey" stroke-dasharray="5,2" d="M1740.61,-531.9C1721.06,-477 1661.67,-313.15 1632,-265 1621.76,-248.38 1620.39,-240.88 1603,-232 1565.43,-212.8 1455.97,-218.29 1414,-214 1388.31,-211.38 1360.39,-208.38 1334.95,-205.6"/>
<polygon fill="lightgrey" stroke="lightgrey" points="1335.28,-202.12 1324.96,-204.51 1334.52,-209.08 1335.28,-202.12"/>
<text text-anchor="middle" x="1710" y="-369.3" font-family="Times,serif" font-size="14.00">0.1.18</text>
</g>
<!-- exupery_core_rawdata -->
<g id="node21" class="node">
<title>exupery_core_rawdata</title>
<ellipse fill="yellow" stroke="black" cx="2059" cy="-462" rx="112.38" ry="18"/>
<text text-anchor="middle" x="2059" y="-458.3" font-family="Times,serif" font-size="14.00">exupery&#45;core&#45;rawdata</text>
</g>
<!-- pareto_lionweb&#45;&gt;exupery_core_rawdata -->
<g id="edge52" class="edge">
<title>pareto_lionweb&#45;&gt;exupery_core_rawdata</title>
<path fill="none" stroke="lightgrey" stroke-dasharray="5,2" d="M1808.87,-541.11C1845.41,-535.09 1892.32,-526.05 1933,-514 1960.84,-505.76 1991.03,-493.65 2014.87,-483.31"/>
<polygon fill="lightgrey" stroke="lightgrey" points="2016.6,-486.37 2024.35,-479.15 2013.78,-479.96 2016.6,-486.37"/>
<text text-anchor="middle" x="1993.5" y="-502.8" font-family="Times,serif" font-size="14.00">0.1.7</text>
</g>
<!-- pareto_standard_operations&#45;&gt;exupery_standard_library -->
<g id="edge56" class="edge">
<title>pareto_standard_operations&#45;&gt;exupery_standard_library</title>
<path fill="none" stroke="red" stroke-width="2" d="M805.75,-175.97C800.91,-163.96 794.47,-147.94 789.01,-134.36"/>
<polygon fill="red" stroke="red" stroke-width="2" points="792.22,-132.97 785.24,-125 785.73,-135.59 792.22,-132.97"/>
<text text-anchor="middle" x="821" y="-146.8" font-family="Times,serif" font-size="14.00">0.1.17</text>
</g>
<!-- pareto_standard_operations&#45;&gt;exupery_core_alg -->
<g id="edge55" class="edge">
<title>pareto_standard_operations&#45;&gt;exupery_core_alg</title>
<path fill="none" stroke="lightgrey" stroke-dasharray="5,2" d="M831.82,-175.98C846.21,-162.14 866.49,-142.49 884,-125 900.68,-108.34 900.24,-98.16 921,-87 1001.9,-43.52 1106.17,-27.48 1181.29,-21.75"/>
<polygon fill="lightgrey" stroke="lightgrey" points="1181.96,-25.21 1191.69,-21.01 1181.47,-18.23 1181.96,-25.21"/>
<text text-anchor="middle" x="944" y="-102.3" font-family="Times,serif" font-size="14.00">0.1.12</text>
</g>
<!-- pareto_targets -->
<g id="node13" class="node">
<title>pareto_targets</title>
<polygon fill="lightcoral" stroke="black" points="158.5,-659 39.5,-659 39.5,-621 158.5,-621 158.5,-659"/>
<text text-anchor="middle" x="99" y="-643.8" font-family="Times,serif" font-size="14.00">pareto&#45;targets</text>
<text text-anchor="middle" x="99" y="-628.8" font-family="Times,serif" font-size="14.00">v0.0.3</text>
</g>
<!-- pareto_targets&#45;&gt;pareto -->
<g id="edge60" class="edge">
<title>pareto_targets&#45;&gt;pareto</title>
<path fill="none" stroke="red" stroke-width="2" d="M158.62,-631.77C197.92,-626.11 250.21,-616.83 295,-603 319.07,-595.57 344.79,-584.48 365.79,-574.54"/>
<polygon fill="red" stroke="red" stroke-width="2" points="367.59,-577.56 375.09,-570.07 364.56,-571.25 367.59,-577.56"/>
<text text-anchor="middle" x="361.5" y="-591.8" font-family="Times,serif" font-size="14.00">0.76.68</text>
</g>
<!-- pareto_targets&#45;&gt;pareto_json -->
<g id="edge61" class="edge">
<title>pareto_targets&#45;&gt;pareto_json</title>
<path fill="none" stroke="red" stroke-width="2" d="M133.78,-620.8C189.85,-591.44 303.68,-531.79 400,-481 454.99,-452 518.32,-418.43 559.19,-396.74"/>
<polygon fill="red" stroke="red" stroke-width="2" points="560.87,-399.8 568.07,-392.02 557.59,-393.62 560.87,-399.8"/>
<text text-anchor="middle" x="389" y="-502.8" font-family="Times,serif" font-size="14.00">0.1.15</text>
</g>
<!-- pareto_targets&#45;&gt;exupery_core_alg -->
<g id="edge57" class="edge">
<title>pareto_targets&#45;&gt;exupery_core_alg</title>
<path fill="none" stroke="lightgrey" stroke-dasharray="5,2" d="M55.58,-620.87C28.98,-606.56 0,-583.69 0,-552 0,-552 0,-552 0,-372 0,-175.84 154.49,-158.89 337,-87 488.32,-27.39 970.77,-19.33 1180.3,-18.72"/>
<polygon fill="lightgrey" stroke="lightgrey" points="1180.38,-22.22 1190.37,-18.7 1180.37,-15.22 1180.38,-22.22"/>
<text text-anchor="middle" x="28" y="-324.8" font-family="Times,serif" font-size="14.00">0.1.12</text>
</g>
<!-- pareto_targets&#45;&gt;exupery_core_data -->
<g id="edge58" class="edge">
<title>pareto_targets&#45;&gt;exupery_core_data</title>
<path fill="none" stroke="lightgrey" stroke-dasharray="5,2" d="M97.56,-620.69C93.17,-560.08 82.47,-367.14 120,-321 210.64,-209.55 283.44,-238.43 425,-214 432.85,-212.65 441.04,-211.21 449.2,-209.76"/>
<polygon fill="lightgrey" stroke="lightgrey" points="449.9,-213.19 459.13,-208 448.67,-206.3 449.9,-213.19"/>
<text text-anchor="middle" x="120" y="-413.8" font-family="Times,serif" font-size="14.00">0.1.11</text>
</g>
<!-- pareto_targets&#45;&gt;exupery_core_dev -->
<g id="edge59" class="edge">
<title>pareto_targets&#45;&gt;exupery_core_dev</title>
<path fill="none" stroke="lightgrey" stroke-dasharray="5,2" d="M79.87,-620.9C64.68,-604.51 46,-578.88 46,-552 46,-552 46,-552 46,-416.5 46,-267.37 145.24,-239.89 280,-176 319.63,-157.21 329.89,-151.09 373,-143 503.67,-118.47 838.82,-139.29 971,-125 979.64,-124.07 988.66,-122.79 997.57,-121.33"/>
<polygon fill="lightgrey" stroke="lightgrey" points="998.28,-124.76 1007.55,-119.63 997.11,-117.86 998.28,-124.76"/>
<text text-anchor="middle" x="71.5" y="-369.3" font-family="Times,serif" font-size="14.00">0.1.3</text>
</g>
<!-- pareto_vscode_backend -->
<g id="node14" class="node">
<title>pareto_vscode_backend</title>
<polygon fill="lightblue" stroke="black" points="500,-659 320,-659 320,-621 500,-621 500,-659"/>
<text text-anchor="middle" x="410" y="-643.8" font-family="Times,serif" font-size="14.00">pareto&#45;vscode&#45;backend</text>
<text text-anchor="middle" x="410" y="-628.8" font-family="Times,serif" font-size="14.00">v0.1.22</text>
</g>
<!-- pareto_vscode_backend&#45;&gt;pareto -->
<g id="edge62" class="edge">
<title>pareto_vscode_backend&#45;&gt;pareto</title>
<path fill="none" stroke="red" stroke-width="2" d="M410,-620.97C410,-609.19 410,-593.56 410,-580.16"/>
<polygon fill="red" stroke="red" stroke-width="2" points="413.5,-580 410,-570 406.5,-580 413.5,-580"/>
<text text-anchor="middle" x="437.5" y="-591.8" font-family="Times,serif" font-size="14.00">0.76.68</text>
</g>
</g>
</svg>
